<svg width="144" height="144" viewBox="0 0 144 144" fill="none" xmlns="http://www.w3.org/2000/svg">
<g filter="url(#filter0_d_309_34877)">
<path d="M71.7175 133.926C106.311 133.926 134.354 105.883 134.354 71.2898C134.354 36.6966 106.311 8.65332 71.7175 8.65332C37.1243 8.65332 9.08105 36.6966 9.08105 71.2898C9.08105 105.883 37.1243 133.926 71.7175 133.926Z" fill="url(#paint0_linear_309_34877)"/>
</g>
<path d="M71.7179 116.174C96.5071 116.174 116.603 96.0786 116.603 71.2895C116.603 46.5003 96.5071 26.4048 71.7179 26.4048C46.9288 26.4048 26.8332 46.5003 26.8332 71.2895C26.8332 96.0786 46.9288 116.174 71.7179 116.174Z" fill="url(#paint1_linear_309_34877)"/>
<path d="M71.7179 116.174C96.5071 116.174 116.603 96.0786 116.603 71.2895C116.603 46.5003 96.5071 26.4048 71.7179 26.4048C46.9288 26.4048 26.8332 46.5003 26.8332 71.2895C26.8332 96.0786 46.9288 116.174 71.7179 116.174Z" fill="url(#paint2_linear_309_34877)" stroke="white" stroke-width="2" stroke-miterlimit="10"/>
<circle cx="72" cy="72" r="71.25" stroke="white" stroke-width="1.5"/>
<g clip-path="url(#clip0_309_34877)">
<path d="M73.3594 101C72.3828 100.85 71.4016 100.723 70.4297 100.545C60.5859 98.7422 52.5812 90.9157 50.5594 81.1016C49.3016 74.9969 50.1687 69.1953 53.1172 63.7047C53.4078 63.1625 53.8 62.7906 54.4422 62.8203C55.375 62.8625 55.9062 63.8266 55.4906 64.7125C55.1844 65.3657 54.8297 65.9953 54.5422 66.6563C54.4531 66.861 54.5141 67.1297 54.5078 67.3703C54.5078 67.3891 54.5203 67.4078 54.525 67.4266C55.0141 69.1641 55.8859 70.586 57.6031 71.3828C58.1609 71.6422 58.6516 72.0547 59.1594 72.4172C60.1016 73.086 60.2625 74.2219 59.3906 74.9657C58.3234 75.8766 58.1203 76.9485 58.5328 78.1719C58.9812 79.4985 59.8969 80.3782 61.3094 80.6563C61.8828 80.7688 62.4672 80.8313 63.0312 80.9719C64.1438 81.2485 64.5953 81.8157 64.6047 82.9688C64.6156 84.55 64.5531 86.1328 64.5891 87.7125C64.6297 89.5625 65.0875 91.2985 66.2266 92.8047C66.5891 93.2844 67.025 93.6469 67.6938 93.7391C67.6938 93.3157 67.7234 92.9157 67.6891 92.5219C67.5609 91.0891 68.0578 89.9641 69.2641 89.1625C69.7188 88.861 70.1828 88.5688 70.6047 88.2266C70.7563 88.1032 70.8984 87.8375 70.8797 87.6547C70.7438 86.2969 71.2828 85.2219 72.1953 84.2844C72.2766 84.2 72.3484 84.1016 72.4438 84.0375C74.2438 82.8438 74.6484 80.9813 74.8344 78.9641C74.3375 78.9641 73.8219 78.9547 73.3063 78.9657C72.3797 78.9844 71.7094 78.5969 71.2531 77.7797C70.7781 76.9282 70.2531 76.1063 69.7672 75.261C69.5766 74.9313 69.3234 74.8266 68.9516 74.8375C67.725 74.875 66.4969 74.8735 65.2703 74.9032C64.2563 74.9266 63.5844 74.4094 63.1016 73.575C63.0437 73.4735 62.9859 73.3703 62.9453 73.261C62.6438 72.4578 62.2484 71.9735 61.2266 71.8469C59.275 71.6063 57.7875 69.1875 58.1766 67.2453C58.3469 66.3985 58.8656 65.8594 59.7266 65.7094C60.8969 65.5063 62.0953 65.4266 63.2391 65.1297C64.9563 64.6844 66.4469 63.7313 67.7969 62.6078C68.2516 62.2297 68.5312 61.6063 68.8094 61.0531C69.55 59.5781 70.5563 58.4438 72.2172 57.986C72.4734 57.9156 72.7109 57.5875 72.8453 57.3219C73.0203 56.9813 73.0828 56.5828 73.2094 56.1563C71.7766 55.6906 70.7 54.6985 69.5953 53.7453C69.0906 53.3094 68.7219 52.8281 68.9297 52.125C69.1313 51.4453 69.6922 51.2781 70.3234 51.1578C81.5141 49.0016 92.6219 54.5344 97.6672 64.7906C104.959 79.6157 96.0016 97.5438 79.7984 100.544C78.8266 100.723 77.8453 100.848 76.8688 101H73.3594ZM92.775 89.8016C92.675 89.711 92.6078 89.6407 92.5313 89.5813C91.0344 88.4125 90.2234 86.9625 90.3844 84.9766C90.4391 84.3 90.1672 83.5594 89.9047 82.9047C89.5281 81.9672 89.0484 81.0672 88.5656 80.1766C87.7 78.586 86.9078 76.9938 87.1625 75.0844C87.2313 74.5625 86.7656 74.2203 86.2359 74.3063C85.8719 74.3657 85.5188 74.486 85.1609 74.5782C84.3 74.8032 83.4281 74.925 82.575 74.5907C81.1797 74.0453 79.7859 73.4907 78.4109 72.8953C77.2313 72.386 76.3313 71.5172 75.9516 70.2922C75.4266 68.5985 75.0313 66.8563 75.1328 65.0594C75.2641 62.7094 77.0953 60.5172 79.375 60.2657C81.0844 60.0766 82.8344 60.1922 84.5625 60.2532C85.2297 60.2766 85.9234 60.5688 86.2016 61.2297C86.7578 62.5547 87.7859 63.0407 89.1141 63.1203C89.3453 63.1344 89.575 63.2016 89.8063 63.2328C91.0406 63.4063 92.1734 62.9797 93.4156 62.6844C91.0516 59.4485 88.1531 57.0313 84.6172 55.3828C81.0813 53.7328 77.3703 53.0625 73.475 53.411C73.7453 53.5735 74.0297 53.6781 74.3203 53.7656C75.5734 54.1375 76.1531 55.1125 75.8328 56.3735C75.675 56.9953 75.4438 57.5985 75.2672 58.2172C74.9594 59.2953 74.2969 60.0766 73.2234 60.3578C72.1016 60.6516 71.5359 61.4203 71.0203 62.361C70.5938 63.1391 70.1531 64.0016 69.4875 64.5407C67.5141 66.1407 65.3844 67.5141 62.7719 67.8594C62.1062 67.9469 61.4438 68.0516 60.7719 68.15C61.0516 69.0907 61.2953 69.3063 62.1641 69.3891C63.2719 69.4953 64.1156 70.0157 64.6766 70.9797C64.8422 71.2657 65.0109 71.5578 65.1219 71.8657C65.2547 72.2375 65.4797 72.3703 65.8672 72.3532C66.8406 72.311 67.8172 72.336 68.7891 72.2625C70.2328 72.1547 71.2719 72.7469 71.9969 73.9672C72.4047 74.6547 72.8344 75.3297 73.2172 76.0313C73.3734 76.3172 73.5531 76.3985 73.8625 76.386C74.4453 76.3625 75.0359 76.3328 75.6125 76.3985C76.9688 76.5516 77.7422 77.6219 77.5 78.9719C77.325 79.95 77.0875 80.9188 76.9313 81.9C76.7266 83.1813 76.0688 84.1797 75.1391 85.0344C74.7516 85.3907 74.375 85.7594 73.9969 86.1266C73.5797 86.5313 73.3781 87.0032 73.4813 87.6032C73.6344 88.5063 73.3266 89.275 72.6469 89.8578C72.0875 90.3375 71.4828 90.7719 70.8641 91.175C70.3813 91.4907 70.2125 91.8688 70.2516 92.4469C70.3 93.1422 70.2938 93.8547 70.1922 94.5422C70.0422 95.5532 69.25 96.2469 68.2313 96.3297C66.8422 96.4407 65.6484 95.9547 64.7063 94.9532C62.8625 92.9953 62.1391 90.5735 62.0266 87.95C61.9688 86.586 62.0312 85.2172 62.0609 83.85C62.0688 83.4828 61.9391 83.3719 61.5813 83.2875C60.7188 83.0828 59.8094 82.9219 59.0375 82.5157C57.5109 81.7141 56.4937 80.4125 56.0219 78.7328C55.5453 77.036 55.7 75.4157 56.7734 73.9422C55.5469 72.925 53.9312 72.4344 53.1891 70.8188C51.0094 79.7297 54.7594 90.9641 65.2766 96.1328C75.2891 101.055 86.7406 97.6766 92.7812 89.7985L92.775 89.8016ZM94.3125 87.6594C96.8609 83.4203 97.9578 78.8719 97.5672 73.975C97.3078 70.7297 96.3797 67.6844 94.7969 64.886C93.1328 65.4844 91.5344 65.9782 89.8266 65.8266C89.0734 65.7594 88.3344 65.5125 87.5813 65.4547C86.1031 65.3391 85.1266 64.5532 84.4859 63.2828C84.2594 62.8344 83.9281 62.6813 83.4563 62.6969C82.4625 62.7328 81.4688 62.7641 80.475 62.7782C78.7609 62.8047 77.6078 63.8938 77.7094 65.6078C77.7828 66.8453 78.0516 68.0766 78.3172 69.2938C78.4609 69.9563 78.9922 70.3735 79.6188 70.6266C80.6297 71.036 81.6672 71.3875 82.6469 71.8563C83.4078 72.2203 84.1109 72.2063 84.9 71.9907C85.5453 71.8141 86.2547 71.6844 86.9078 71.7672C88.6156 71.9813 89.8281 73.4688 89.7297 75.2266C89.6688 76.3094 89.9156 77.2532 90.4266 78.1875C91.0625 79.35 91.5922 80.5703 92.225 81.7344C92.8047 82.8016 93.0438 83.9438 92.9656 85.1203C92.8891 86.2578 93.325 87.0375 94.3109 87.661L94.3125 87.6594Z" fill="#005BAC"/>
<path d="M59.9063 41C60.7438 41.2391 61.6203 41.3891 62.4141 41.7312C66.425 43.4609 68.3328 47.7656 67.0844 52.15C66.3359 54.7797 64.8297 56.975 63.1094 59.0375C62.2734 60.0406 61.3797 60.9969 60.4844 61.9484C59.5344 62.9594 58.5703 62.95 57.6141 61.9469C55.8781 60.1234 54.1891 58.2594 52.8484 56.1109C51.55 54.0297 50.6109 51.8312 50.6453 49.3109C50.7031 45.2266 53.6813 41.7672 57.7125 41.1187C57.8625 41.0953 58.0063 41.0406 58.1516 41C58.7359 41 59.3219 41 59.9063 41ZM59.0609 59.7203C61.0438 57.5469 62.9859 55.4281 64.1235 52.7453C64.4906 51.8797 64.7344 50.9281 64.8516 49.9937C65.2078 47.1297 63.3266 44.5141 60.4766 43.7766C57.7094 43.0609 54.7891 44.4984 53.6969 47.1234C52.7906 49.3031 53.2422 51.3703 54.2578 53.375C55.4625 55.7516 57.2078 57.7203 59.0609 59.7203Z" fill="#005BAC"/>
<path d="M63.2156 49.5424C63.1906 51.8892 61.3266 53.708 58.9797 53.6799C56.6891 53.6517 54.8578 51.7611 54.8828 49.4533C54.9078 47.1705 56.8078 45.3158 59.1 45.3361C61.3969 45.3564 63.2406 47.2408 63.2156 49.5424ZM59.0719 51.1002C59.9656 51.097 60.6484 50.4002 60.6406 49.4986C60.6344 48.6095 59.9234 47.9064 59.0422 47.9158C58.1703 47.9252 57.4484 48.6611 57.4594 49.5267C57.4703 50.4095 58.1813 51.1017 59.0719 51.1002Z" fill="#005BAC"/>
</g>
<defs>
<filter id="filter0_d_309_34877" x="7.08105" y="6.65332" width="133.273" height="133.273" filterUnits="userSpaceOnUse" color-interpolation-filters="sRGB">
<feFlood flood-opacity="0" result="BackgroundImageFix"/>
<feColorMatrix in="SourceAlpha" type="matrix" values="0 0 0 0 0 0 0 0 0 0 0 0 0 0 0 0 0 0 127 0" result="hardAlpha"/>
<feOffset dx="2" dy="2"/>
<feGaussianBlur stdDeviation="2"/>
<feColorMatrix type="matrix" values="0 0 0 0 0.478431 0 0 0 0 0.552941 0 0 0 0 0.576471 0 0 0 0.75 0"/>
<feBlend mode="normal" in2="BackgroundImageFix" result="effect1_dropShadow_309_34877"/>
<feBlend mode="normal" in="SourceGraphic" in2="effect1_dropShadow_309_34877" result="shape"/>
</filter>
<linearGradient id="paint0_linear_309_34877" x1="27.4278" y1="27.0001" x2="116.007" y2="115.579" gradientUnits="userSpaceOnUse">
<stop stop-color="#F2F4F5"/>
<stop offset="1" stop-color="white"/>
</linearGradient>
<linearGradient id="paint1_linear_309_34877" x1="26.8251" y1="71.2895" x2="116.603" y2="71.2895" gradientUnits="userSpaceOnUse">
<stop stop-color="#99A3B5"/>
<stop offset="0.88" stop-color="white"/>
</linearGradient>
<linearGradient id="paint2_linear_309_34877" x1="26.8251" y1="71.2895" x2="116.603" y2="71.2895" gradientUnits="userSpaceOnUse">
<stop stop-color="#CCD1DA"/>
<stop offset="0.88" stop-color="white"/>
</linearGradient>
<clipPath id="clip0_309_34877">
<rect width="50.2328" height="60" fill="white" transform="translate(50 41)"/>
</clipPath>
</defs>
</svg>
