<svg width="144" height="144" viewBox="0 0 144 144" fill="none" xmlns="http://www.w3.org/2000/svg">
<g filter="url(#filter0_d_309_34836)">
<path d="M71.7175 133.926C106.311 133.926 134.354 105.883 134.354 71.2898C134.354 36.6966 106.311 8.65332 71.7175 8.65332C37.1243 8.65332 9.08105 36.6966 9.08105 71.2898C9.08105 105.883 37.1243 133.926 71.7175 133.926Z" fill="url(#paint0_linear_309_34836)"/>
</g>
<path d="M71.718 116.174C96.5071 116.174 116.603 96.0786 116.603 71.2895C116.603 46.5003 96.5071 26.4048 71.718 26.4048C46.9288 26.4048 26.8333 46.5003 26.8333 71.2895C26.8333 96.0786 46.9288 116.174 71.718 116.174Z" fill="url(#paint1_linear_309_34836)"/>
<path d="M71.718 116.174C96.5071 116.174 116.603 96.0786 116.603 71.2895C116.603 46.5003 96.5071 26.4048 71.718 26.4048C46.9288 26.4048 26.8333 46.5003 26.8333 71.2895C26.8333 96.0786 46.9288 116.174 71.718 116.174Z" fill="url(#paint2_linear_309_34836)" stroke="white" stroke-width="2" stroke-miterlimit="10"/>
<circle cx="72" cy="72" r="71.25" stroke="white" stroke-width="1.5"/>
<g clip-path="url(#clip0_309_34836)">
<path d="M85.5812 43C86.356 43.262 87.104 43.6169 87.4458 44.3954C87.6847 44.9404 87.7429 45.5707 87.8474 46.1696C87.8937 46.4376 87.8549 46.7221 87.8549 47.0709C88.6894 47.0709 89.4657 47.0635 90.2405 47.0724C90.9661 47.0814 91.6991 47.047 92.4142 47.1383C94.7596 47.4378 96.3585 49.6177 95.93 51.9399C94.7192 58.4933 91.2647 63.4955 85.5797 66.9316C85.208 67.1562 84.9706 67.4242 84.7974 67.8195C83.3762 71.0579 81.528 74 78.7243 76.2219C77.942 76.8432 77.0552 77.3388 76.1804 77.8299C75.8385 78.0215 75.7072 78.2162 75.6982 78.595C75.6415 81.2975 77.4389 83.7604 80.044 84.524C81.213 84.8668 81.4354 85.1648 81.4354 86.3955C81.4354 88.2461 81.4354 90.0966 81.4354 92.0355C82.3461 92.0355 83.2179 91.9996 84.0868 92.043C85.8858 92.1314 87.4234 93.2992 87.6966 95.0689C87.9191 96.5122 87.8429 98.0139 87.7698 99.4827C87.7519 99.8316 87.2174 100.155 86.9203 100.49H56.1919C55.4739 100.103 55.2201 99.5022 55.2649 98.6907C55.3171 97.7399 55.2589 96.7832 55.2887 95.8295C55.35 93.8217 56.9324 92.1703 58.9329 92.052C59.8197 91.9996 60.7125 92.043 61.6575 92.043C61.6694 91.7765 61.6858 91.5789 61.6858 91.3827C61.6873 89.6804 61.6858 87.9796 61.6873 86.2772C61.6873 85.2037 61.9665 84.8324 62.9772 84.5464C65.5987 83.8053 67.3708 81.4936 67.429 78.7582C67.438 78.3255 67.3305 78.0754 66.8871 77.8658C63.8849 76.4494 61.7381 74.0943 60.0347 71.311C59.336 70.1701 58.7971 68.9289 58.1551 67.7521C57.9969 67.4616 57.761 67.1622 57.4848 66.9945C51.7759 63.5314 48.2766 58.5262 47.0703 51.9294C46.6016 49.3737 48.5453 47.1159 51.2027 47.0754C52.4851 47.056 53.7675 47.0724 55.1738 47.0724C54.9394 45.153 55.4082 43.6184 57.4206 43.0015H85.5812V43ZM71.5002 45.6666C67.1245 45.6666 62.7488 45.6725 58.3746 45.6576C57.9207 45.6561 57.7625 45.7729 57.7685 46.252C57.7938 48.2717 57.7625 50.293 57.7834 52.3142C57.8341 57.2386 58.5851 62.0327 60.5452 66.5828C61.7635 69.408 63.3429 71.9892 65.7256 73.997C69.3235 77.0304 73.7156 77.0618 77.2598 73.979C78.3182 73.0582 79.2916 71.9832 80.0948 70.8319C83.1582 66.445 84.5735 61.4458 84.987 56.1786C85.2438 52.9026 85.1453 49.5998 85.2348 46.3104C85.2498 45.7744 85.0706 45.6576 84.5705 45.6591C80.2142 45.677 75.8564 45.6695 71.5002 45.6695V45.6666ZM57.9282 97.7924H85.2229C85.2229 97.3342 85.2229 96.9075 85.2229 96.4823C85.2229 95.1228 84.7735 94.6751 83.4135 94.6751C75.5026 94.6751 67.5917 94.6751 59.6809 94.6751C59.5137 94.6751 59.345 94.6677 59.1792 94.6841C58.4761 94.7545 57.9924 95.1932 57.9372 95.8984C57.8909 96.5077 57.9267 97.1246 57.9267 97.7909L57.9282 97.7924ZM78.7333 91.9876V87.2848H64.3745V91.9876H78.7333ZM87.8415 49.748C87.9579 54.2531 87.6653 58.6849 86.4411 63.1466C88.0161 61.8725 89.2761 60.51 90.3286 58.9529C91.8544 56.6966 92.8695 54.2292 93.3025 51.5327C93.4518 50.5999 92.9128 49.7974 92.0425 49.7615C90.672 49.7046 89.297 49.7465 87.8429 49.7465L87.8415 49.748ZM55.1604 49.7375C53.8989 49.7375 52.712 49.7375 51.5266 49.7375C50.0382 49.7375 49.4664 50.4442 49.7516 51.9085C50.3935 55.2069 51.7968 58.1384 53.9944 60.6657C54.7379 61.5221 55.5873 62.2857 56.3875 63.0927C56.4323 63.0583 56.4756 63.0254 56.5204 62.9909C55.3276 58.6684 55.0454 54.2471 55.1604 49.7375ZM73.0378 78.8899H70.0774C70.0192 81.025 69.2578 82.8845 67.8754 84.5404H75.2653C73.8455 82.8546 73.1125 80.98 73.0364 78.8899H73.0378Z" fill="#005BAC"/>
<path d="M66.0077 64.8697C66.1973 63.7349 66.4212 62.4847 66.6048 61.2285C66.6332 61.0324 66.5481 60.7509 66.4122 60.6101C65.6076 59.7792 64.7805 58.9692 63.943 58.1712C63.4966 57.746 63.2861 57.2594 63.4712 56.6605C63.6593 56.0511 64.1415 55.8011 64.7372 55.7172C65.842 55.5615 66.9437 55.3818 68.0514 55.2516C68.4187 55.2082 68.6008 55.0495 68.7501 54.7291C69.2264 53.7154 69.7414 52.7213 70.2221 51.7092C70.4864 51.1522 70.8835 50.7959 71.509 50.7988C72.136 50.8018 72.5242 51.1717 72.7869 51.7256C73.2751 52.7542 73.7693 53.7798 74.3037 54.7845C74.4112 54.9866 74.6889 55.1812 74.9158 55.2201C76.0146 55.4133 77.1223 55.557 78.2271 55.7097C78.8197 55.7921 79.3169 56.0227 79.5184 56.6245C79.7244 57.2399 79.5065 57.746 79.0437 58.1861C78.2196 58.9707 77.403 59.7657 76.6147 60.5847C76.4669 60.7374 76.3714 61.0384 76.4012 61.248C76.555 62.3394 76.7551 63.4234 76.9432 64.5089C77.0507 65.1273 77.0462 65.7142 76.4819 66.1319C75.9026 66.5601 75.3353 66.4119 74.7591 66.096C73.8439 65.5959 72.9093 65.1348 72.0017 64.6227C71.6553 64.4281 71.3836 64.4116 71.0283 64.6092C70.0221 65.1722 69.0009 65.7112 67.9678 66.2247C66.9691 66.7218 65.9688 66.0765 66.0077 64.8668V64.8697ZM73.9245 62.6374C73.8155 62.0026 73.7454 61.489 73.6379 60.983C73.4841 60.2598 73.6409 59.6684 74.2231 59.1803C74.6217 58.8464 74.971 58.4541 75.4219 58.0095C74.7023 57.8987 74.1395 57.7924 73.5707 57.7295C72.975 57.6636 72.5809 57.3582 72.3286 56.8267C72.0778 56.2966 71.8091 55.7741 71.4986 55.1453C71.185 55.7801 70.9193 56.3056 70.6655 56.8371C70.4117 57.3702 70.0116 57.6651 69.4175 57.7325C68.8412 57.7969 68.2694 57.9092 67.6006 58.0155C68.0649 58.4781 68.4277 58.8779 68.8292 59.2312C69.3458 59.6864 69.5055 60.2269 69.3742 60.8901C69.2667 61.4336 69.189 61.9816 69.0801 62.6374C69.6503 62.3409 70.14 62.1238 70.5909 61.8439C71.2149 61.4561 71.8001 61.471 72.4212 61.8483C72.8616 62.1164 73.3348 62.3334 73.9215 62.6404L73.9245 62.6374Z" fill="#005BAC"/>
<path d="M54.5033 86.6112V87.8104H52.7193V86.6231C52.2461 86.5977 51.8415 86.5767 51.422 86.5543V84.7905C51.8221 84.7711 52.2102 84.7531 52.6716 84.7322V83.5254H54.4735C54.4914 83.9237 54.5078 84.3114 54.5272 84.7576H55.7559V86.5513C55.3364 86.5707 54.9467 86.5902 54.5033 86.6112Z" fill="#005BAC"/>
<path d="M49.826 71.7466H48.1973V73.4893H49.826V71.7466Z" fill="#005BAC"/>
<path d="M60.8198 77.1245H59.1791V78.8568H60.8198V77.1245Z" fill="#005BAC"/>
<path d="M91.1854 81.6793H89.3595V80.1896H87.8562V78.354H89.3521V76.8643H91.157V78.3255H92.6424V80.1462C92.1871 80.1656 91.7198 80.1866 91.1854 80.2106V81.6793Z" fill="#005BAC"/>
<path d="M84.1912 87.3941V85.6514H85.8393V87.3941H84.1912Z" fill="#005BAC"/>
</g>
<defs>
<filter id="filter0_d_309_34836" x="7.08105" y="6.65332" width="133.273" height="133.273" filterUnits="userSpaceOnUse" color-interpolation-filters="sRGB">
<feFlood flood-opacity="0" result="BackgroundImageFix"/>
<feColorMatrix in="SourceAlpha" type="matrix" values="0 0 0 0 0 0 0 0 0 0 0 0 0 0 0 0 0 0 127 0" result="hardAlpha"/>
<feOffset dx="2" dy="2"/>
<feGaussianBlur stdDeviation="2"/>
<feColorMatrix type="matrix" values="0 0 0 0 0.478431 0 0 0 0 0.552941 0 0 0 0 0.576471 0 0 0 0.75 0"/>
<feBlend mode="normal" in2="BackgroundImageFix" result="effect1_dropShadow_309_34836"/>
<feBlend mode="normal" in="SourceGraphic" in2="effect1_dropShadow_309_34836" result="shape"/>
</filter>
<linearGradient id="paint0_linear_309_34836" x1="27.4278" y1="27.0001" x2="116.007" y2="115.579" gradientUnits="userSpaceOnUse">
<stop stop-color="#F2F4F5"/>
<stop offset="1" stop-color="white"/>
</linearGradient>
<linearGradient id="paint1_linear_309_34836" x1="26.8251" y1="71.2895" x2="116.603" y2="71.2895" gradientUnits="userSpaceOnUse">
<stop stop-color="#99A3B5"/>
<stop offset="0.88" stop-color="white"/>
</linearGradient>
<linearGradient id="paint2_linear_309_34836" x1="26.8251" y1="71.2895" x2="116.603" y2="71.2895" gradientUnits="userSpaceOnUse">
<stop stop-color="#CCD1DA"/>
<stop offset="0.88" stop-color="white"/>
</linearGradient>
<clipPath id="clip0_309_34836">
<rect width="49" height="57.4933" fill="white" transform="translate(47 43)"/>
</clipPath>
</defs>
</svg>
