<svg width="144" height="144" viewBox="0 0 144 144" fill="none" xmlns="http://www.w3.org/2000/svg">
<g filter="url(#filter0_d_309_34816)">
<path d="M71.7175 133.926C106.311 133.926 134.354 105.883 134.354 71.2898C134.354 36.6966 106.311 8.65332 71.7175 8.65332C37.1243 8.65332 9.08105 36.6966 9.08105 71.2898C9.08105 105.883 37.1243 133.926 71.7175 133.926Z" fill="url(#paint0_linear_309_34816)"/>
</g>
<path d="M71.7179 116.174C96.5071 116.174 116.603 96.0786 116.603 71.2895C116.603 46.5003 96.5071 26.4048 71.7179 26.4048C46.9288 26.4048 26.8332 46.5003 26.8332 71.2895C26.8332 96.0786 46.9288 116.174 71.7179 116.174Z" fill="url(#paint1_linear_309_34816)"/>
<path d="M71.7179 116.174C96.5071 116.174 116.603 96.0786 116.603 71.2895C116.603 46.5003 96.5071 26.4048 71.7179 26.4048C46.9288 26.4048 26.8332 46.5003 26.8332 71.2895C26.8332 96.0786 46.9288 116.174 71.7179 116.174Z" fill="url(#paint2_linear_309_34816)" stroke="white" stroke-width="2" stroke-miterlimit="10"/>
<circle cx="72" cy="72" r="71.25" stroke="white" stroke-width="1.5"/>
<g clip-path="url(#clip0_309_34816)">
<path d="M41 90.1949C41.2412 89.3124 41.3925 88.3942 41.7383 87.5559C43.4216 83.475 46.5088 81.1272 50.8364 80.3651C51.0283 80.3307 51.2203 80.2926 51.5783 80.2237C46.8903 79.3633 44.7591 75.5614 45.0938 72.1824C45.4715 68.3694 48.6314 65.5042 52.4138 65.4906C56.1988 65.4771 59.35 68.2772 59.7831 72.1246C60.1596 75.4631 58.0752 79.3387 53.4696 80.2348C56.2246 80.6011 58.6708 81.6349 60.738 83.6126C63.4524 80.2053 66.953 78.2681 71.2954 77.7789C68.2807 77.2565 65.8702 75.8036 64.2239 73.2309C62.5726 70.6483 62.2059 67.8507 63.1472 64.9338C64.5721 60.5149 69.019 57.6177 73.4536 58.1573C78.2918 58.7461 81.9069 62.4373 82.3179 67.155C82.692 71.4522 79.8422 76.7931 73.7046 77.7924C78.0125 78.2546 81.5181 80.1721 84.2522 83.6065C86.3059 81.6557 88.757 80.5962 91.5292 80.2348C86.9137 79.3338 84.8391 75.4532 85.2157 72.1234C85.65 68.2772 88.8 65.4747 92.5849 65.4894C96.3662 65.5029 99.526 68.3682 99.905 72.1811C100.241 75.5688 98.0987 79.3658 93.434 80.2201C94.1009 80.3479 94.6251 80.4106 95.1271 80.5507C99.9776 81.9004 103.008 84.9463 103.9 89.9774C103.914 90.0536 103.966 90.1224 104 90.1937V94.1271C103.617 94.813 103.022 94.9986 102.258 94.9974C82.4188 94.9839 62.58 94.9839 42.7411 94.9974C41.977 94.9974 41.3827 94.813 40.9988 94.1271C40.9988 92.8156 40.9988 91.5053 40.9988 90.1937L41 90.1949ZM60.2248 92.4874H84.7715C84.8404 86.2861 79.8164 80.2963 72.5665 80.252C65.4937 80.209 60.183 86.0083 60.2248 92.4874ZM79.8816 67.9429C79.8791 63.8816 76.5482 60.5628 72.4815 60.5726C68.4407 60.5825 65.1332 63.8829 65.1196 67.9195C65.1061 71.982 68.4235 75.3143 72.4889 75.3205C76.5544 75.3266 79.884 72.0054 79.8816 67.9429ZM43.4819 92.4911H57.7393C57.7885 90.2183 58.2721 88.0832 59.2294 86.055C59.2958 85.9137 59.2257 85.6015 59.1063 85.4957C58.5416 84.9967 57.9854 84.4558 57.3369 84.0859C54.1033 82.2433 50.8093 82.129 47.6187 84.1203C44.5721 86.0206 43.237 88.8637 43.4806 92.4911H43.4819ZM87.46 92.4874H101.618C101.524 91.4844 101.551 90.5035 101.325 89.5865C100.489 86.1976 98.3128 83.9949 94.9794 83.0656C91.5452 82.1069 88.5158 83.0091 85.9195 85.4343C85.6562 85.6801 85.6562 85.8842 85.7964 86.1804C86.0229 86.6598 86.28 87.1416 86.4018 87.6505C86.7808 89.2325 87.102 90.828 87.46 92.4874ZM57.3615 72.8646C57.364 70.2009 55.1553 67.9785 52.4766 67.9503C49.7979 67.9208 47.5276 70.1726 47.5264 72.8609C47.5239 75.5245 49.7326 77.7457 52.4114 77.7752C55.0901 77.8047 57.3603 75.5528 57.3615 72.8646ZM92.5419 67.9503C89.8705 67.9638 87.6532 70.1788 87.6397 72.8474C87.6262 75.5295 89.8878 77.7887 92.5726 77.7752C95.244 77.7617 97.4613 75.5467 97.4748 72.8781C97.4884 70.196 95.2268 67.9367 92.5419 67.9503Z" fill="#005BAC"/>
<path d="M65.9256 53.4324C66.1902 51.8664 66.483 50.2144 66.7328 48.5562C66.7672 48.3276 66.654 47.9969 66.4904 47.831C65.3977 46.7222 64.278 45.6393 63.1534 44.5613C62.7325 44.1581 62.5086 43.7009 62.6919 43.133C62.8777 42.559 63.3453 42.3377 63.915 42.259C65.4162 42.0538 66.9149 41.8264 68.4173 41.626C68.8197 41.5719 69.0559 41.4048 69.2343 41.0213C69.8729 39.6495 70.5645 38.3023 71.2191 36.9379C71.4762 36.4007 71.8257 36 72.4606 36C73.0992 36 73.4425 36.4167 73.6985 36.9477C74.3568 38.3109 75.0446 39.6593 75.6795 41.0335C75.8604 41.4257 76.1102 41.5744 76.5076 41.6272C77.9891 41.8264 79.4669 42.0525 80.9484 42.2541C81.5353 42.334 82.0238 42.5344 82.2207 43.1465C82.4077 43.7292 82.1616 44.1754 81.7494 44.5724C80.674 45.6111 79.6207 46.6743 78.5244 47.6921C78.1774 48.0141 78.0925 48.3239 78.1749 48.7664C78.4469 50.234 78.6745 51.7115 78.9501 53.178C79.0584 53.7557 78.976 54.2535 78.4998 54.6075C78.0187 54.9664 77.5043 54.8779 76.9961 54.6075C75.6402 53.8872 74.2706 53.1915 72.9245 52.4552C72.5738 52.2634 72.308 52.2843 71.9709 52.4663C70.6026 53.2075 69.2282 53.9351 67.8414 54.6407C66.8411 55.1496 65.8678 54.5657 65.9244 53.4299L65.9256 53.4324ZM76.1348 51.3735C75.9699 50.384 75.8961 49.5432 75.6783 48.7418C75.3879 47.6761 75.6808 46.9066 76.515 46.2035C77.1573 45.6615 77.6778 44.9743 78.2512 44.3548C77.2902 44.2147 76.3009 44.0463 75.3067 43.9344C74.5758 43.8521 74.1242 43.4981 73.8264 42.8306C73.4155 41.9075 72.9393 41.0126 72.452 40.0268C71.9475 41.0557 71.4738 41.9837 71.0357 42.9265C70.7712 43.4968 70.3799 43.8238 69.7401 43.9037C68.6978 44.034 67.6618 44.2098 66.6897 44.3573C67.4231 45.1427 68.1355 45.9257 68.8726 46.6866C69.2577 47.0836 69.4349 47.5102 69.3315 48.0707C69.1359 49.1315 68.971 50.1996 68.7766 51.3723C69.7856 50.8437 70.7121 50.3791 71.6178 49.8776C72.1936 49.558 72.7239 49.5629 73.2986 49.8825C74.1882 50.3779 75.1012 50.8327 76.1348 51.3735Z" fill="#005BAC"/>
<path d="M46.5002 59.6998C46.6392 58.8849 46.7734 57.9114 46.9801 56.9526C47.1044 56.3736 47.0108 55.9631 46.5359 55.5648C45.8788 55.0129 45.3005 54.3676 44.6742 53.7788C44.2497 53.3793 44.0368 52.9196 44.2128 52.348C44.3936 51.7629 44.8661 51.5515 45.4321 51.4765C46.3661 51.3512 47.2963 51.2024 48.2315 51.0869C48.6351 51.0365 48.875 50.8669 49.0485 50.4797C49.441 49.6032 49.8975 48.7551 50.3171 47.891C50.5607 47.3895 50.9274 47.0613 51.5033 47.0625C52.0804 47.0625 52.4421 47.4042 52.6845 47.9008C53.1152 48.7834 53.5705 49.6536 53.9753 50.5473C54.1328 50.8927 54.3555 51.0316 54.7099 51.077C55.6647 51.2 56.6159 51.3499 57.5695 51.4765C58.1404 51.5527 58.5957 51.7875 58.7864 52.3591C58.9698 52.9085 58.752 53.356 58.3558 53.7395C57.6335 54.4377 56.8989 55.1223 56.2086 55.85C56.0474 56.0196 55.9477 56.3478 55.9797 56.5814C56.1126 57.5733 56.3046 58.5591 56.4768 59.5462C56.5716 60.0919 56.4645 60.5726 55.997 60.913C55.5528 61.2363 55.0827 61.2105 54.6078 60.9598C53.7034 60.4816 52.8051 59.9899 51.8823 59.5486C51.6706 59.4478 51.3286 59.4466 51.1169 59.5486C50.1756 59.9973 49.27 60.5222 48.3311 60.9782C47.3849 61.4367 46.4805 60.8663 46.5039 59.7011L46.5002 59.6998ZM53.5545 57.7221C53.4991 56.8235 53.2481 56.0123 53.4634 55.3534C53.6787 54.6958 54.3617 54.1918 54.9314 53.5096C53.1103 53.6534 51.9524 52.9036 51.5931 51.0414C51.1255 51.8023 50.8671 52.6172 50.3097 53.0241C49.7388 53.4408 48.8762 53.4592 48.1601 53.6461C48.6314 54.2041 49.3229 54.7069 49.5345 55.3645C49.7462 56.0245 49.4792 56.8383 49.4115 57.7282C50.7896 56.5101 52.1714 56.4867 53.5532 57.7208L53.5545 57.7221Z" fill="#005BAC"/>
<path d="M88.3398 59.6534C88.485 58.82 88.6462 57.8096 88.8443 56.8066C88.9354 56.3444 88.8603 56.0076 88.4838 55.6782C87.8218 55.0992 87.2238 54.4477 86.579 53.8479C86.1237 53.425 85.8469 52.9506 86.0561 52.3237C86.2591 51.7152 86.7673 51.5382 87.353 51.4645C88.2672 51.3502 89.1765 51.1978 90.0908 51.081C90.4698 51.033 90.7011 50.8794 90.8672 50.5106C91.2696 49.6158 91.7322 48.748 92.1629 47.8666C92.3967 47.3873 92.7535 47.075 93.3011 47.0615C93.8794 47.0468 94.2571 47.37 94.502 47.8666C94.9364 48.7467 95.3867 49.6207 95.7915 50.5143C95.9564 50.8782 96.1877 51.0343 96.5692 51.081C97.4834 51.1941 98.3927 51.3539 99.307 51.4633C99.9235 51.537 100.43 51.7521 100.629 52.3815C100.82 52.9911 100.512 53.4398 100.086 53.8442C99.387 54.5067 98.6881 55.1693 98.0224 55.865C97.871 56.0236 97.7726 56.3284 97.8021 56.5447C97.9338 57.517 98.1122 58.4832 98.2919 59.4481C98.3977 60.0123 98.3374 60.5187 97.8587 60.8899C97.3518 61.2833 96.8313 61.1763 96.3059 60.8949C95.4593 60.4388 94.5955 60.0123 93.7551 59.544C93.4549 59.3768 93.2223 59.3645 92.9147 59.5354C92.0017 60.0406 91.0813 60.5359 90.14 60.987C89.1987 61.4382 88.3004 60.8445 88.3386 59.6521L88.3398 59.6534ZM96.8301 53.6733C95.9564 53.4595 95.1049 53.4619 94.55 53.0563C93.9852 52.6445 93.712 51.832 93.2248 51.0576C92.8593 52.91 91.6928 53.65 89.8533 53.6008C91.4406 54.6174 91.8405 55.9387 91.1687 57.6781C92.6243 56.5165 94.0074 56.482 95.4888 57.6781C94.7715 55.9142 95.2587 54.6198 96.8301 53.6746V53.6733Z" fill="#005BAC"/>
<path d="M77.3862 84.1365C77.5191 84.1943 77.8009 84.268 78.0273 84.4229C79.4349 85.3878 80.53 86.6342 81.3028 88.1572C81.6645 88.8701 81.48 89.5744 80.8598 89.91C80.2557 90.2357 79.5592 90.06 79.1901 89.3716C78.5293 88.1387 77.6323 87.1394 76.5113 86.3158C76.0351 85.9655 75.8838 85.4603 76.0967 84.8974C76.2899 84.3872 76.6873 84.1365 77.3862 84.1353V84.1365Z" fill="#005BAC"/>
<path d="M72.484 85.1454C71.8368 85.1343 71.2695 84.5529 71.2794 83.91C71.2892 83.2635 71.8725 82.6968 72.516 82.7067C73.1632 82.7165 73.7305 83.2991 73.7206 83.942C73.7108 84.5886 73.1275 85.1552 72.484 85.1454Z" fill="#005BAC"/>
</g>
<defs>
<filter id="filter0_d_309_34816" x="7.08105" y="6.65332" width="133.273" height="133.273" filterUnits="userSpaceOnUse" color-interpolation-filters="sRGB">
<feFlood flood-opacity="0" result="BackgroundImageFix"/>
<feColorMatrix in="SourceAlpha" type="matrix" values="0 0 0 0 0 0 0 0 0 0 0 0 0 0 0 0 0 0 127 0" result="hardAlpha"/>
<feOffset dx="2" dy="2"/>
<feGaussianBlur stdDeviation="2"/>
<feColorMatrix type="matrix" values="0 0 0 0 0.478431 0 0 0 0 0.552941 0 0 0 0 0.576471 0 0 0 0.75 0"/>
<feBlend mode="normal" in2="BackgroundImageFix" result="effect1_dropShadow_309_34816"/>
<feBlend mode="normal" in="SourceGraphic" in2="effect1_dropShadow_309_34816" result="shape"/>
</filter>
<linearGradient id="paint0_linear_309_34816" x1="27.4278" y1="27.0001" x2="116.007" y2="115.579" gradientUnits="userSpaceOnUse">
<stop stop-color="#F2F4F5"/>
<stop offset="1" stop-color="white"/>
</linearGradient>
<linearGradient id="paint1_linear_309_34816" x1="26.8251" y1="71.2895" x2="116.603" y2="71.2895" gradientUnits="userSpaceOnUse">
<stop stop-color="#99A3B5"/>
<stop offset="0.88" stop-color="white"/>
</linearGradient>
<linearGradient id="paint2_linear_309_34816" x1="26.8251" y1="71.2895" x2="116.603" y2="71.2895" gradientUnits="userSpaceOnUse">
<stop stop-color="#CCD1DA"/>
<stop offset="0.88" stop-color="white"/>
</linearGradient>
<clipPath id="clip0_309_34816">
<rect width="63" height="59" fill="white" transform="translate(41 36)"/>
</clipPath>
</defs>
</svg>
