<svg width="144" height="144" viewBox="0 0 144 144" fill="none" xmlns="http://www.w3.org/2000/svg">
<g filter="url(#filter0_d_309_34858)">
<path d="M71.7175 133.926C106.311 133.926 134.354 105.883 134.354 71.2898C134.354 36.6966 106.311 8.65332 71.7175 8.65332C37.1243 8.65332 9.08105 36.6966 9.08105 71.2898C9.08105 105.883 37.1243 133.926 71.7175 133.926Z" fill="url(#paint0_linear_309_34858)"/>
</g>
<path d="M71.718 116.174C96.5071 116.174 116.603 96.0786 116.603 71.2895C116.603 46.5003 96.5071 26.4048 71.718 26.4048C46.9288 26.4048 26.8333 46.5003 26.8333 71.2895C26.8333 96.0786 46.9288 116.174 71.718 116.174Z" fill="url(#paint1_linear_309_34858)"/>
<path d="M71.718 116.174C96.5071 116.174 116.603 96.0786 116.603 71.2895C116.603 46.5003 96.5071 26.4048 71.718 26.4048C46.9288 26.4048 26.8333 46.5003 26.8333 71.2895C26.8333 96.0786 46.9288 116.174 71.718 116.174Z" fill="url(#paint2_linear_309_34858)" stroke="white" stroke-width="2" stroke-miterlimit="10"/>
<circle cx="72" cy="72" r="71.25" stroke="white" stroke-width="1.5"/>
<g clip-path="url(#clip0_309_34858)">
<path d="M101 87.2338C100.713 87.683 100.305 87.8347 99.7759 87.8139C98.9444 87.7812 98.1115 87.805 97.2235 87.805C97.1194 89.7505 96.3831 91.3509 94.799 92.4888C93.7356 93.2518 92.5412 93.5909 91.2352 93.5136C88.259 93.3381 86.4101 91.4059 85.8345 87.8451H65.7918C65.7115 89.6895 65.0154 91.2319 63.537 92.3727C62.4987 93.173 61.3163 93.5567 60.0118 93.524C56.9522 93.4467 55.0647 91.5294 54.4028 87.805C53.2129 87.805 52.0111 87.805 50.8093 87.805C50.4389 87.805 50.0671 87.8109 49.6967 87.8035C48.5797 87.7826 47.8256 87.033 47.7988 85.9041C47.7839 85.2942 47.7958 84.6829 47.7958 83.9987C47.006 83.9987 46.2519 83.9987 45.4978 83.9987C45.294 83.9987 45.0888 84.0091 44.885 83.9943C44.357 83.9556 44 83.5912 44 83.1048C44 82.6169 44.3585 82.2228 44.885 82.2213C47.7423 82.2094 50.5996 82.2094 53.4569 82.2213C53.9834 82.2228 54.3434 82.6169 54.3434 83.1048C54.3434 83.609 53.9685 83.9853 53.4018 83.9943C52.3443 84.0091 51.2868 83.9987 50.2292 84.0002C50.0314 84.0002 49.8321 84.0002 49.6075 84.0002V85.974C49.7592 85.9918 49.899 86.0201 50.0403 86.0216C51.4697 86.0245 52.8976 86.0156 54.327 86.0305C54.6438 86.0335 54.8015 85.9457 54.9457 85.6378C55.9706 83.4528 57.6974 82.2376 60.1159 82.2361C62.533 82.2361 64.2598 83.4409 65.2936 85.6259C65.4155 85.8832 65.5211 86.0335 65.8513 86.0335C71.8069 86.0216 77.7639 86.0231 83.7194 86.0216C83.7745 86.0216 83.8295 86.0112 83.9767 85.9948C83.9767 85.8089 83.9767 85.614 83.9767 85.4192C83.9767 83.4305 83.9723 81.4404 83.9797 79.4517C83.9827 78.7512 84.3947 78.3466 84.9926 78.418C85.4835 78.4775 85.7572 78.8389 85.7586 79.4681C85.7631 81.4196 85.7601 83.3725 85.7601 85.324C85.7601 85.5278 85.7601 85.73 85.7601 85.9189C86.2197 86.2001 86.2673 85.8237 86.3819 85.5739C87.8827 82.3061 91.8704 81.195 94.7782 83.2431C95.6483 83.8559 96.3117 84.6487 96.7133 85.6363C96.8427 85.9546 97.0153 86.0424 97.3336 86.032C97.9404 86.0112 98.5488 86.026 99.1869 86.026V82.0978C98.8373 82.0978 98.5086 82.1053 98.1799 82.0978C96.6271 82.0562 95.455 80.8796 95.4208 79.3209C95.4074 78.7259 95.4104 78.1309 95.4193 77.536C95.4282 76.8235 95.7272 76.5156 96.4322 76.5067C97.2785 76.4963 98.1249 76.5037 98.9801 76.5037C98.818 75.5399 97.878 74.6891 96.8398 74.5225C96.6018 74.4838 96.3593 74.4615 96.1199 74.4615C92.8178 74.4571 89.5143 74.4586 86.2123 74.46C86.0844 74.46 85.958 74.4779 85.7557 74.4943C85.7557 74.8393 85.7705 75.168 85.7527 75.4938C85.7244 75.995 85.3764 76.3446 84.9123 76.3654C84.4527 76.3862 84.0615 76.056 83.9916 75.5711C83.9648 75.3882 83.9767 75.2008 83.9767 75.0148C83.9767 69.9949 83.9767 64.9764 83.9767 59.9564V59.2544H49.5792V59.9386C49.5792 64.9586 49.5792 69.977 49.5792 74.997C49.5792 75.2008 49.5911 75.409 49.5629 75.6098C49.4989 76.0516 49.2193 76.3104 48.785 76.355C48.3521 76.3981 48.0145 76.2062 47.8776 75.7809C47.8062 75.5577 47.7988 75.3064 47.7988 75.0684C47.7943 69.919 47.7943 64.7697 47.7958 59.6203C47.7958 58.1165 48.4756 57.4308 49.9615 57.4294C53.7469 57.4294 57.5323 57.4294 61.3163 57.4294C61.4948 57.4294 61.6718 57.4294 61.8502 57.4294C61.8577 57.3951 61.8666 57.3609 61.874 57.3267C61.7164 57.2568 61.5617 57.181 61.401 57.117C59.2012 56.232 56.9969 55.3589 54.8044 54.4546C54.5204 54.3371 54.1812 54.1021 54.086 53.8418C53.9938 53.5889 54.1039 53.1769 54.2705 52.9359C54.5174 52.576 54.9309 52.5968 55.3295 52.7574C56.979 53.4238 58.63 54.0827 60.2825 54.7416C60.5012 54.8294 60.7243 54.9082 60.9801 54.9231C60.339 54.4724 59.6831 54.0426 59.0614 53.5651C58.459 53.1025 57.8462 52.6385 57.3181 52.097C56.1208 50.8699 55.7906 49.3885 56.3617 47.7791C56.9165 46.2129 58.0723 45.2729 59.7277 45.0691C61.4739 44.8549 62.9688 45.4752 63.772 47.031C64.7298 48.8843 65.4408 50.867 66.244 52.8006C66.4359 53.2617 66.5712 53.7451 66.7735 54.3415C66.8895 54.0277 66.9624 53.8135 67.0472 53.6038C67.901 51.4902 68.6164 49.3067 69.6442 47.2809C71.0691 44.4682 74.862 44.2376 76.6707 46.7275C77.868 48.3756 77.7431 50.6528 76.2557 52.0762C75.3484 52.9434 74.2923 53.6529 73.2972 54.4263C73.0667 54.6063 72.8153 54.7595 72.6101 55.0019C73.034 54.8353 73.4594 54.6732 73.8818 54.5037C75.3617 53.9117 76.8372 53.3108 78.3217 52.7307C78.8214 52.5358 79.3019 52.7381 79.4937 53.1709C79.6975 53.6306 79.4967 54.1214 78.9969 54.3698C78.8482 54.4442 78.6905 54.5007 78.5359 54.5631C76.4223 55.4125 74.3072 56.2618 72.1936 57.1096C72.0419 57.1706 71.8917 57.2315 71.7459 57.4264H72.2903C76.0757 57.4264 79.8611 57.4264 83.6451 57.4264C85.0715 57.4264 85.7542 58.1136 85.7586 59.5444C85.7601 60.0814 85.7586 60.6183 85.7586 61.2386C85.9922 61.2386 86.1885 61.2386 86.3834 61.2386C88.369 61.2386 90.3547 61.2341 92.3389 61.2386C94.6354 61.2445 96.2121 62.8197 96.2255 65.1266C96.2284 65.7796 96.4099 66.5144 95.5413 66.8401C96.0098 68.7217 96.4649 70.575 96.9424 72.4223C96.9781 72.5621 97.1462 72.7332 97.2845 72.7704C99.2687 73.2984 100.481 74.5567 100.93 76.5602C100.938 76.5915 100.976 76.6138 101 76.6406V87.2383V87.2338ZM95.101 72.6305C95.0787 72.4714 95.0712 72.345 95.0415 72.226C94.6354 70.5884 94.2145 68.9537 93.8263 67.3116C93.7385 66.9383 93.5987 66.8104 93.2001 66.8133C90.8827 66.8357 88.5654 66.8238 86.2465 66.8252C86.1022 66.8252 85.9594 66.8416 85.7869 66.852V72.632H95.098L95.101 72.6305ZM91.5446 91.7406C93.6686 91.7361 95.4059 90.0018 95.4118 87.8808C95.4178 85.7434 93.6493 83.9853 91.5045 84.0002C89.3924 84.0151 87.6521 85.7791 87.6655 87.8927C87.6789 90.0152 89.4236 91.7451 91.5446 91.7406ZM60.0445 91.7376C62.1641 91.7897 63.9073 90.1193 63.9847 87.9611C64.059 85.8669 62.3292 84.0448 60.223 84.0002C58.0916 83.9556 56.3156 85.6348 56.2532 87.7544C56.1892 89.9007 57.8878 91.6826 60.046 91.7361L60.0445 91.7376ZM68.374 55.292C68.4141 55.3306 68.4558 55.3693 68.4959 55.4065C70.2049 54.2716 71.9244 53.1531 73.617 51.9959C74.1346 51.6419 74.618 51.221 75.0509 50.7688C75.7574 50.0311 75.8704 48.972 75.4108 48.0796C74.9512 47.1886 74.0305 46.7082 73.0057 46.8287C72.0404 46.9417 71.4023 47.5218 71.0468 48.3696C70.2734 50.214 69.5535 52.0822 68.8217 53.9444C68.6491 54.3847 68.5212 54.8428 68.3725 55.2935L68.374 55.292ZM65.0719 55.3619C65.1076 55.3306 65.1433 55.2994 65.1775 55.2682C65.0556 54.8874 64.9529 54.4977 64.8072 54.1259C64.0323 52.161 63.2841 50.1843 62.4482 48.2462C62.0139 47.2392 61.1646 46.7216 60.0297 46.8287C59.0272 46.9224 58.3355 47.4683 58.0202 48.4217C57.6721 49.4718 57.986 50.3732 58.8145 51.0707C59.4942 51.6434 60.1918 52.2041 60.9281 52.6994C62.2905 53.6142 63.6887 54.4784 65.0719 55.3634V55.3619ZM94.4034 65.0106C94.454 63.8876 93.6329 63.0309 92.4742 63.022C90.3636 63.0071 88.253 63.016 86.1424 63.019C86.0219 63.019 85.9014 63.0547 85.7884 63.074V65.0106H94.4034ZM97.2532 78.3094C97.0227 80.0095 97.5225 80.5063 99.1839 80.2475V78.3094H97.2532Z" fill="#005BAC" stroke="#005BAC" stroke-width="0.5"/>
<path d="M74.4455 83.9981C72.256 83.9981 70.0666 84.001 67.8772 83.9966C67.306 83.9966 66.9282 83.717 66.8613 83.2455C66.7958 82.7829 67.007 82.4482 67.4354 82.2772C67.5841 82.2177 67.7626 82.2177 67.9262 82.2177C72.2501 82.2147 76.5725 82.2132 80.8963 82.2177C81.5508 82.2177 81.9509 82.5627 81.9539 83.1027C81.9554 83.6411 81.5523 83.9966 80.9023 83.9981C78.75 84.004 76.5978 83.9996 74.4455 83.9996V83.9981Z" fill="#005BAC" stroke="#005BAC" stroke-width="0.5"/>
<path d="M52.5555 78.4027C54.4088 78.4027 56.2636 78.3818 58.1169 78.4235C58.4143 78.4294 58.8011 78.6481 58.9691 78.892C59.1045 79.0898 59.0881 79.5866 58.9305 79.7443C58.691 79.9867 58.273 80.1682 57.9295 80.1727C55.2968 80.2069 52.6641 80.192 50.0314 80.192C49.0676 80.192 48.1037 80.192 47.1399 80.192C46.3471 80.1905 45.9128 79.8782 45.9009 79.307C45.8875 78.7239 46.3084 78.4042 47.1057 78.4027C48.9218 78.3997 50.7394 78.4027 52.5555 78.4027Z" fill="#005BAC" stroke="#005BAC" stroke-width="0.5"/>
<path d="M91.5193 89.7069C90.4975 89.6995 89.6854 88.8725 89.6973 87.8521C89.7107 86.8392 90.5555 86.0092 91.558 86.0211C92.565 86.0345 93.3949 86.8853 93.3816 87.8908C93.3682 88.9141 92.5456 89.7143 91.5178 89.7069H91.5193Z" fill="#005BAC" stroke="#005BAC" stroke-width="0.5"/>
<path d="M60.1293 89.7083C59.106 89.7127 58.2775 88.8991 58.2716 87.8832C58.2656 86.8852 59.1105 86.0299 60.11 86.0225C61.1244 86.0165 61.9469 86.8376 61.9514 87.8624C61.9559 88.8976 61.1586 89.7038 60.1278 89.7083H60.1293Z" fill="#005BAC" stroke="#005BAC" stroke-width="0.5"/>
</g>
<defs>
<filter id="filter0_d_309_34858" x="7.08105" y="6.65332" width="133.273" height="133.273" filterUnits="userSpaceOnUse" color-interpolation-filters="sRGB">
<feFlood flood-opacity="0" result="BackgroundImageFix"/>
<feColorMatrix in="SourceAlpha" type="matrix" values="0 0 0 0 0 0 0 0 0 0 0 0 0 0 0 0 0 0 127 0" result="hardAlpha"/>
<feOffset dx="2" dy="2"/>
<feGaussianBlur stdDeviation="2"/>
<feColorMatrix type="matrix" values="0 0 0 0 0.478431 0 0 0 0 0.552941 0 0 0 0 0.576471 0 0 0 0.75 0"/>
<feBlend mode="normal" in2="BackgroundImageFix" result="effect1_dropShadow_309_34858"/>
<feBlend mode="normal" in="SourceGraphic" in2="effect1_dropShadow_309_34858" result="shape"/>
</filter>
<linearGradient id="paint0_linear_309_34858" x1="27.4278" y1="27.0001" x2="116.007" y2="115.579" gradientUnits="userSpaceOnUse">
<stop stop-color="#F2F4F5"/>
<stop offset="1" stop-color="white"/>
</linearGradient>
<linearGradient id="paint1_linear_309_34858" x1="26.8251" y1="71.2895" x2="116.603" y2="71.2895" gradientUnits="userSpaceOnUse">
<stop stop-color="#99A3B5"/>
<stop offset="0.88" stop-color="white"/>
</linearGradient>
<linearGradient id="paint2_linear_309_34858" x1="26.8251" y1="71.2895" x2="116.603" y2="71.2895" gradientUnits="userSpaceOnUse">
<stop stop-color="#CCD1DA"/>
<stop offset="0.88" stop-color="white"/>
</linearGradient>
<clipPath id="clip0_309_34858">
<rect width="57" height="48.5248" fill="white" transform="translate(44 45)"/>
</clipPath>
</defs>
</svg>
