<svg width="20" height="20" viewBox="0 0 20 20" fill="none" xmlns="http://www.w3.org/2000/svg">
<g clip-path="url(#clip0_1305_30231)">
<path fill-rule="evenodd" clip-rule="evenodd" d="M3 1.75C2.30964 1.75 1.75 2.30964 1.75 3C1.75 11.4223 8.57766 18.25 17 18.25C17.6904 18.25 18.25 17.6904 18.25 17V15.3541C18.25 14.8429 17.9388 14.3833 17.4642 14.1935L15.4301 13.3798C14.8265 13.1384 14.1386 13.3999 13.8478 13.9814L13.6708 14.3354C13.5196 14.6379 13.1846 14.8018 12.8529 14.7354L13 14C12.8529 14.7354 12.8532 14.7355 12.8529 14.7354L12.8519 14.7352L12.8507 14.735L12.8475 14.7343L12.8385 14.7325L12.8097 14.7263C12.7859 14.721 12.7529 14.7135 12.7114 14.7034C12.6285 14.6832 12.5115 14.6528 12.3665 14.6101C12.0768 14.525 11.6734 14.3903 11.2046 14.1894C10.2704 13.789 9.05609 13.1167 7.96967 12.0303C6.88325 10.9439 6.21099 9.72958 5.81064 8.79544C5.60973 8.32664 5.47504 7.92316 5.38985 7.6335C5.34721 7.48851 5.31682 7.37154 5.29664 7.28859C5.28655 7.2471 5.279 7.21408 5.27374 7.19026L5.26753 7.1615L5.26566 7.15247L5.26501 7.14932L5.26477 7.14809C5.26472 7.14785 5.26456 7.14709 6 7L5.26456 7.14709C5.19824 6.81544 5.36208 6.48043 5.66459 6.32918L6.01861 6.15217C6.60008 5.86143 6.86163 5.17351 6.62018 4.5699L5.80653 2.53576C5.6167 2.06119 5.15706 1.75 4.64593 1.75H3ZM6.88322 7.38709C8.02553 6.69729 8.51646 5.27171 8.0129 4.01281L7.19925 1.97868C6.78162 0.934616 5.77042 0.25 4.64593 0.25H3C1.48122 0.25 0.25 1.48122 0.25 3C0.25 12.2508 7.74923 19.75 17 19.75C18.5188 19.75 19.75 18.5188 19.75 17V15.3541C19.75 14.2296 19.0654 13.2184 18.0213 12.8008L15.9872 11.9871C14.7283 11.4835 13.3027 11.9745 12.6129 13.1168C12.3906 13.0457 12.111 12.9459 11.7954 12.8106C10.9796 12.461 9.94391 11.8833 9.03033 10.9697C8.11675 10.0561 7.53901 9.02042 7.18936 8.20456C7.05411 7.88897 6.95433 7.60941 6.88322 7.38709ZM10.25 1C10.25 0.585786 10.5858 0.25 11 0.25C12.1491 0.25 13.2869 0.476325 14.3485 0.916054C15.4101 1.35578 16.3747 2.0003 17.1872 2.81282C17.9997 3.62533 18.6442 4.58992 19.0839 5.65152C19.5237 6.71312 19.75 7.85093 19.75 9C19.75 9.41421 19.4142 9.75 19 9.75C18.5858 9.75 18.25 9.41421 18.25 9C18.25 8.04792 18.0625 7.10516 17.6981 6.22554C17.3338 5.34593 16.7997 4.5467 16.1265 3.87348C15.4533 3.20025 14.6541 2.66622 13.7745 2.30187C12.8948 1.93753 11.9521 1.75 11 1.75C10.5858 1.75 10.25 1.41421 10.25 1ZM10.25 5C10.25 4.58579 10.5858 4.25 11 4.25C11.6238 4.25 12.2415 4.37286 12.8177 4.61157C13.394 4.85028 13.9177 5.20016 14.3588 5.64124C14.7998 6.08232 15.1497 6.60596 15.3884 7.18225C15.6271 7.75855 15.75 8.37622 15.75 9C15.75 9.41421 15.4142 9.75 15 9.75C14.5858 9.75 14.25 9.41421 14.25 9C14.25 8.5732 14.1659 8.15059 14.0026 7.75628C13.8393 7.36197 13.5999 7.00369 13.2981 6.7019C12.9963 6.40011 12.638 6.16072 12.2437 5.99739C11.8494 5.83406 11.4268 5.75 11 5.75C10.5858 5.75 10.25 5.41421 10.25 5Z" fill="#D9D9D9"/>
</g>
<defs>
<clipPath id="clip0_1305_30231">
<rect width="20" height="20" fill="white"/>
</clipPath>
</defs>
</svg>
