<svg width="60" height="64" viewBox="0 0 60 64" fill="none" xmlns="http://www.w3.org/2000/svg">
<g clip-path="url(#clip0_1305_27853)">
<path d="M48.4593 26.3204C48.4488 39.66 37.5605 50.5448 24.2543 50.5167C10.8268 50.4903 -0.0140539 39.6301 1.36756e-05 26.2255C0.0140813 12.8736 10.9147 2.04154 24.3088 2.06792C37.6431 2.0943 48.4681 12.9668 48.4576 26.3204H48.4593ZM45.2994 26.338C45.3099 14.7024 35.8847 5.23137 24.2947 5.22785C12.6292 5.22433 3.19336 14.625 3.1617 26.2835C3.13005 37.9033 12.5782 47.3356 24.2701 47.3585C35.8161 47.3796 45.2888 37.9104 45.2994 26.338Z" fill="#005BAC"/>
<path d="M42.2695 51.6052C44.6856 49.1891 47.151 46.7255 49.604 44.2725C52.1204 46.773 54.7211 49.2612 57.2075 51.8602C59.0944 53.8314 58.9678 57.0071 57.088 58.9713C55.2012 60.9425 52.0113 61.2643 50.0014 59.4021C47.3057 56.9016 44.8087 54.1866 42.2695 51.6069V51.6052Z" fill="#005BAC"/>
<path d="M47.9127 42.7162C45.486 45.1411 43.0365 47.5889 40.6573 49.9663C40.084 49.4001 39.4809 48.804 38.8496 48.1815C41.7352 46.2367 44.1777 43.7854 46.156 40.8611C46.7785 41.5187 47.3623 42.136 47.9109 42.7162H47.9127Z" fill="#005BAC"/>
<path d="M46.3936 2.082H48.4404V0H50.554V2.04507H52.636V4.15873H50.5892V6.24073H48.4756V4.19566H46.3936V2.082Z" fill="#005BAC"/>
<path d="M55.8463 24.1805H53.7783V22.0897H55.8181V20.0217H57.9318V22.0615H59.9997V24.1752H57.9599V26.2431H55.8463V24.1805Z" fill="#005BAC"/>
<path d="M5.25639 52.5951V54.6947H3.18845V52.6356H1.08887V50.5448H3.14801V48.4452H5.2388V50.5043H7.34015V52.5951H5.25815H5.25639Z" fill="#005BAC"/>
<path d="M30.5728 61.0551H28.4873V58.9643H30.5236V56.8788H32.6372V58.9133H34.7228V61.027H32.6865V63.1125H30.5711V61.0533L30.5728 61.0551Z" fill="#005BAC"/>
<path d="M24.2332 7.33448C34.7048 7.34151 43.1946 15.8331 43.1911 26.2941C43.1876 36.7304 34.6978 45.2484 24.2965 45.2519C13.7617 45.2554 5.25255 36.7463 5.26662 26.222C5.28069 15.8155 13.8039 7.32744 24.2315 7.33448H24.2332ZM8.42831 28.8209C8.42831 29.6984 8.416 30.5759 8.43183 31.4533C8.44589 32.1937 8.83803 32.5858 9.57482 32.6086C10.1006 32.6245 10.6299 32.6333 11.1539 32.6051C11.5619 32.584 11.8028 32.6825 12.0208 33.0869C12.5958 34.1526 13.5454 34.7153 14.7622 34.71C15.9773 34.703 16.9181 34.1385 17.4914 33.0658C17.6918 32.6895 17.9134 32.6034 18.3038 32.6051C22.2321 32.6192 26.1605 32.6174 30.0889 32.6051C30.5162 32.6051 30.7659 32.6913 31.0033 33.1168C32.0583 35.0037 34.7224 35.3641 35.9814 33.6461C36.7112 32.6508 37.4744 32.5242 38.489 32.6104C38.6191 32.621 38.7527 32.6157 38.8846 32.6104C39.6214 32.5788 40.0171 32.1972 40.0329 31.4586C40.0505 30.6902 40.047 29.9235 40.0364 29.1551C39.9925 26.389 40.3617 27.3544 38.4468 25.2794C37.7012 24.4723 36.9187 23.9993 35.8126 24.1892C35.4205 24.256 35.2271 24.045 35.0319 23.7443C34.0718 22.276 33.0941 20.82 32.1199 19.3605C31.4464 18.3512 30.4986 17.8641 29.2835 17.8658C25.6189 17.8693 21.9525 17.8658 18.2879 17.8676C16.9322 17.8676 15.9334 18.4725 15.3091 19.67C14.8836 20.4859 14.4932 21.3194 14.0729 22.1388C13.7248 22.8176 13.512 23.7355 12.9493 24.089C12.413 24.4283 11.5038 24.1769 10.7583 24.1857C10.6932 24.1857 10.6264 24.1857 10.5613 24.1857C9.33215 24.2226 8.45996 25.0878 8.43534 26.3187C8.41952 27.1522 8.43183 27.9857 8.43183 28.8192L8.42831 28.8209ZM16.9111 11.56V13.6086H18.9139V11.56H16.9111ZM33.6867 11.5776H31.6416V13.6104H33.6867V11.5776ZM26.3065 13.6895H24.2737V15.7117H26.3065V13.6895ZM26.3065 36.8623H24.2754V38.881H26.3065V36.8623ZM18.9175 39.9554V37.9297H16.8935V39.9554H18.9175Z" fill="#005BAC"/>
<path d="M10.5631 30.4792V26.2924C10.804 26.2924 11.0344 26.2924 11.2665 26.2924C19.445 26.2924 27.6253 26.2924 35.8038 26.2924C36.7341 26.2924 37.9245 27.4916 37.9245 28.4271C37.9245 29.1006 37.9245 29.7741 37.9245 30.4528C37.1895 30.5759 36.72 30.5232 36.2751 29.7987C35.0407 27.7888 32.1252 27.9646 30.9593 30.0625C30.7694 30.4036 30.5813 30.5126 30.2085 30.5109C26.2168 30.4986 22.2269 30.4986 18.2352 30.5109C17.8589 30.5109 17.676 30.3913 17.4896 30.0537C16.3501 27.984 13.519 27.8275 12.1791 29.7389C11.8087 30.2676 11.2688 30.5132 10.5596 30.4757L10.5631 30.4792Z" fill="#005BAC"/>
<path d="M32.7824 24.1646H24.2803V19.9742C25.1982 19.9742 26.1319 19.9742 27.0639 19.9742C27.8077 19.9742 28.5586 19.9232 29.2954 19.997C29.6471 20.0322 30.0955 20.2151 30.2924 20.4824C31.1417 21.6447 31.9137 22.8616 32.7841 24.1646H32.7824Z" fill="#005BAC"/>
<path d="M22.0934 19.9777V24.1522H15.4131C16.0655 22.8703 16.6739 21.6183 17.3456 20.4032C17.4652 20.1869 17.8468 20.0058 18.1141 19.997C19.4223 19.9566 20.7341 19.9777 22.0934 19.9777Z" fill="#005BAC"/>
<path d="M14.7626 30.5109C15.3341 30.5197 15.8054 31.0015 15.7966 31.573C15.7878 32.1427 15.3025 32.6157 14.7345 32.6069C14.163 32.5981 13.6935 32.1146 13.7023 31.5448C13.7111 30.9716 14.1911 30.5038 14.7644 30.5126L14.7626 30.5109Z" fill="#005BAC"/>
<path d="M33.7433 32.6069C33.1735 32.6245 32.6829 32.162 32.6636 31.5905C32.646 31.0191 33.1067 30.5302 33.6782 30.5109C34.2479 30.4933 34.7403 30.9557 34.7579 31.5272C34.7755 32.0952 34.3112 32.5893 33.7415 32.6069H33.7433Z" fill="#005BAC"/>
</g>
<defs>
<clipPath id="clip0_1305_27853">
<rect width="60" height="63.1142" fill="white"/>
</clipPath>
</defs>
</svg>
