<svg width="20" height="20" viewBox="0 0 20 20" fill="none" xmlns="http://www.w3.org/2000/svg">
<rect width="20" height="20" rx="10" fill="#FF5B5B"/>
<path d="M10.0003 2.85693C6.05443 2.85693 2.85742 6.05394 2.85742 9.99979C2.85742 13.9456 6.05443 17.1426 10.0003 17.1426C13.9461 17.1426 17.1431 13.9456 17.1431 9.99979C17.1431 6.05394 13.9461 2.85693 10.0003 2.85693ZM10.0003 15.7602C6.81768 15.7602 4.23991 13.1824 4.23991 9.99979C4.23991 6.81719 6.81768 4.23942 10.0003 4.23942C13.1829 4.23942 15.7606 6.81719 15.7606 9.99979C15.7606 13.1824 13.1829 15.7602 10.0003 15.7602ZM12.9323 8.20832L11.1408 9.99979L12.9323 11.7913C13.0677 11.9266 13.0677 12.1455 12.9323 12.2809L12.2814 12.9318C12.146 13.0672 11.9271 13.0672 11.7918 12.9318L10.0003 11.1403L8.2088 12.9318C8.07344 13.0672 7.85454 13.0672 7.71917 12.9318L7.06825 12.2809C6.93288 12.1455 6.93288 11.9266 7.06825 11.7913L8.85973 9.99979L7.06825 8.20832C6.93288 8.07295 6.93288 7.85405 7.06825 7.71869L7.71917 7.06776C7.85454 6.93239 8.07344 6.93239 8.2088 7.06776L10.0003 8.85924L11.7918 7.06776C11.9271 6.93239 12.146 6.93239 12.2814 7.06776L12.9323 7.71869C13.0677 7.85405 13.0677 8.07295 12.9323 8.20832Z" fill="white"/>
</svg>
