<svg width="60" height="63" viewBox="0 0 60 63" fill="none" xmlns="http://www.w3.org/2000/svg">
<path d="M53.6113 62.9983C52.4959 61.8598 51.3835 60.7197 50.2665 59.5827C49.3498 58.6505 48.4285 57.7246 47.4332 56.7201C46.2253 57.9372 45.0667 59.1035 43.8449 60.3345C42.315 54.6247 40.8113 49.0059 39.2676 43.2422C45.0143 44.7813 50.6424 46.2881 56.2844 47.798C55.0888 48.9812 53.9318 50.1275 52.7932 51.2553C54.9579 53.4168 57.0209 55.4798 59.2533 57.7092C57.3382 59.5441 55.5372 61.2712 53.7346 62.9983H53.6113Z" fill="#005BAC"/>
<path d="M36.4601 47.0564C37.0179 49.1255 37.5432 51.1022 38.0871 53.0728C38.198 53.4764 37.913 53.5119 37.6742 53.6058C35.6035 54.4116 33.4635 54.9632 31.2603 55.2251C24.5892 56.0186 18.3433 54.7398 12.7167 51.0375C5.55869 46.3292 1.27867 39.6981 0.218684 31.1597C-1.44679 17.7419 6.5401 5.38713 19.4233 1.26581C29.772 -2.04511 41.5012 1.28738 48.5899 9.52849C53.044 14.7067 55.3366 20.7092 55.4028 27.5236C55.4552 32.9345 54.0254 37.9587 51.0966 42.59C48.9027 42.003 46.7134 41.416 44.4439 40.8089C48.7902 34.848 50.0505 28.3402 47.8951 21.307C46.453 16.6033 43.5796 12.8625 39.4953 10.1232C31.3312 4.65069 20.2968 5.35786 12.8785 12.5837C6.24583 19.0453 4.42937 29.203 9.04371 37.8169C10.7385 40.98 13.1234 43.5498 16.1401 45.5065C19.1691 47.4708 22.4862 48.5817 26.0944 48.8759C29.6888 49.1687 33.0999 48.5 36.4601 47.0564Z" fill="#005BAC"/>
<path d="M34.0508 38.0238C34.5392 39.8634 35.0044 41.6136 35.479 43.4008C34.1817 44.0787 32.8382 44.5455 31.4362 44.8398C27.5429 45.6579 23.7682 45.2927 20.1846 43.541C15.2437 41.1252 12.0575 37.2288 10.6894 31.8965C8.67727 24.056 12.6307 15.5869 19.915 12.0525C26.7602 8.73083 34.57 9.98802 40.0224 15.2864C46.0496 21.1441 46.937 30.8904 42.0546 37.7357C41.5801 38.4013 41.1471 39.3118 40.4862 39.5645C39.873 39.8002 38.9763 39.3257 38.2137 39.1315C36.8533 38.7849 35.499 38.412 34.0508 38.0253V38.0238ZM32.3622 23.4859C32.9831 22.315 33.5839 21.1811 34.2017 20.0132C33.7103 19.7529 33.2727 19.4863 32.8074 19.2814C32.2096 19.0195 31.5934 18.793 30.9771 18.5773C30.461 18.3971 29.7291 18.4048 29.4657 18.0519C29.1961 17.6914 29.3748 16.992 29.3702 16.4404C29.364 15.6516 29.3686 14.8612 29.3686 14.0862H25.6833V18.1798C25.4722 18.2445 25.2966 18.2938 25.124 18.3524C23.5818 18.8731 22.2661 19.6959 21.5004 21.1949C20.388 23.3735 20.2894 26.9247 23.9254 28.3206C24.9746 28.7227 26.0562 29.037 27.1131 29.4175C27.9188 29.7087 28.7292 29.9984 29.4965 30.3728C30.0311 30.6331 30.2853 31.1416 30.1636 31.7625C30.0434 32.3757 29.5859 32.6745 29.0312 32.7285C28.304 32.7993 27.5522 32.8517 26.8342 32.7485C25.0532 32.4928 23.4154 31.8179 21.9086 30.7456C21.2877 31.9797 20.6838 33.1784 20.0675 34.4032C21.6591 35.457 23.3661 36.0594 25.1672 36.403C25.5878 36.4831 25.7003 36.6418 25.6864 37.0408C25.6602 37.7989 25.6787 38.5569 25.6787 39.3164C25.6787 39.9003 25.6787 40.4843 25.6787 41.0528H29.3748V36.5987C29.6845 36.5355 29.9418 36.48 30.2006 36.4307C32.963 35.9023 34.5962 34.0658 34.7348 31.3311C34.8457 29.151 33.9121 27.484 31.9215 26.5935C30.7891 26.0866 29.5735 25.7615 28.3965 25.3563C27.623 25.0913 26.8296 24.8741 26.0823 24.5521C25.3998 24.2578 25.1287 23.7016 25.2119 23.0776C25.2966 22.4506 25.7064 22.0315 26.4459 21.8929C26.845 21.8174 27.261 21.7758 27.6662 21.7927C29.3748 21.8667 30.86 22.5815 32.3622 23.4875V23.4859Z" fill="#005BAC"/>
</svg>
