<svg width="48" height="61" viewBox="0 0 48 61" fill="none" xmlns="http://www.w3.org/2000/svg">
<path d="M32.0665 0C32.0665 2.13679 32.0566 4.19584 32.0698 6.2549C32.0814 8.07746 33.1729 9.52624 34.8681 9.95293C35.2816 10.0571 35.7248 10.0737 36.1549 10.077C37.9079 10.0902 39.6627 10.0819 41.4158 10.0819C41.639 10.0819 41.8607 10.0819 42.1269 10.0819V37.8916C41.8722 37.6749 41.6705 37.5195 41.4869 37.3458C40.4565 36.3651 39.2757 35.9715 37.9212 36.5503C36.603 37.1143 36.0192 38.1893 36.0176 39.6017C36.0176 39.6629 36.006 39.7241 35.9944 39.7836C35.9911 39.8018 35.9713 39.8167 35.968 39.8217C34.5308 40.0036 33.0919 40.1243 31.6779 40.3757C28.3635 40.9628 25.3353 42.1735 22.9703 44.6857C22.4642 45.2232 22.0607 45.8583 21.5711 46.4123C21.4074 46.5975 21.1229 46.7844 20.8947 46.7844C16.1283 46.8059 11.3618 46.8043 6.59706 46.7976C5.70232 46.7976 5.22436 46.3131 5.19459 45.4266C5.18963 45.2827 5.19459 45.1372 5.19459 44.9933C5.19459 30.5931 5.19459 16.1946 5.19459 1.79444C5.19128 0.353926 5.54355 0 6.9758 0C15.083 0 23.1919 0 31.3008 0C31.5257 0 31.7506 0 32.0665 0ZM23.2217 22.1783C26.0068 22.1783 28.7919 22.1816 31.577 22.1766C32.432 22.175 32.991 21.6871 33.0026 20.9643C33.0158 20.2052 32.4237 19.7041 31.4893 19.7041C25.9803 19.7024 20.4729 19.7041 14.9639 19.7041C14.7787 19.7041 14.5885 19.7041 14.4116 19.7488C13.6938 19.9224 13.2919 20.6369 13.5085 21.3265C13.6805 21.874 14.142 22.1766 14.8647 22.1766C17.6498 22.1816 20.4349 22.1783 23.22 22.1783H23.2217ZM23.2415 37.9098C25.1186 37.9098 26.9958 37.9098 28.8729 37.9098C29.8421 37.9098 30.8129 37.923 31.782 37.9015C32.4667 37.8866 32.9646 37.3872 33.0009 36.7438C33.034 36.1369 32.6024 35.601 31.9607 35.4737C31.7804 35.4373 31.5919 35.4356 31.4066 35.4356C25.9605 35.434 20.5143 35.4323 15.0681 35.4373C14.8234 35.4373 14.5687 35.4538 14.3355 35.5183C13.7351 35.6854 13.3994 36.2196 13.4689 36.8414C13.5334 37.4169 13.9766 37.847 14.5769 37.8999C14.7605 37.9164 14.9474 37.9098 15.1343 37.9098C17.8367 37.9098 20.5391 37.9098 23.2415 37.9098ZM23.258 27.5881C22.8661 27.5881 22.4741 27.5881 22.0822 27.5881C19.6692 27.5881 17.2545 27.5831 14.8416 27.5914C13.9088 27.5947 13.3547 28.1867 13.4722 29.0137C13.5664 29.6769 14.1122 30.0639 14.9887 30.0639C18.7017 30.0672 22.4162 30.0639 26.1292 30.0639C27.9236 30.0639 29.718 30.0606 31.5141 30.0639C32.1145 30.0639 32.6222 29.8968 32.8885 29.313C33.2804 28.4497 32.6553 27.593 31.615 27.5897C28.8299 27.5798 26.0448 27.5864 23.2597 27.5864L23.258 27.5881ZM23.258 11.845C20.8037 11.845 18.3477 11.845 15.8934 11.845C15.4601 11.845 15.0251 11.8317 14.5951 11.8648C13.9319 11.9161 13.4821 12.3957 13.4622 13.0275C13.4407 13.6692 13.8459 14.1686 14.4992 14.286C14.6811 14.3175 14.868 14.3208 15.0532 14.3208C20.4994 14.3224 25.9456 14.3224 31.3917 14.3191C31.6365 14.3191 31.8912 14.3075 32.126 14.2414C32.6917 14.081 32.9811 13.6592 32.9943 13.0969C33.0059 12.5296 32.7115 12.103 32.1641 11.921C31.9177 11.84 31.6349 11.8483 31.3686 11.8483C28.6662 11.8433 25.9638 11.845 23.2614 11.845H23.258Z" fill="#005BAC"/>
<path d="M38.4986 42.3289C38.4986 41.4094 38.4655 40.5676 38.5168 39.7291C38.535 39.4231 38.6838 39.0146 38.912 38.8707C39.0758 38.7665 39.5355 38.9468 39.7489 39.132C42.3124 41.3714 44.8593 43.6322 47.403 45.8947C48.1985 46.6025 48.2018 47.3501 47.4178 48.0463C44.8726 50.3088 42.3289 52.5696 39.7654 54.8106C39.5504 54.9992 39.1022 55.1877 38.9269 55.0868C38.6987 54.9562 38.5532 54.546 38.5184 54.2417C38.4556 53.6744 38.5002 53.0972 38.5002 52.4919C37.4401 52.4919 36.4313 52.4158 35.4373 52.5084C33.3683 52.6986 31.2795 52.8442 29.2469 53.2477C25.4794 53.9953 22.8795 56.2892 21.2935 59.7606C21.1661 60.0401 21.0404 60.3213 20.9131 60.6024C20.8651 60.5809 20.8105 60.5677 20.8105 60.5545C20.8254 57.4717 21.0586 54.417 21.9434 51.4434C23.3525 46.7133 26.5362 43.9018 31.3291 42.9971C33.4245 42.6018 35.5845 42.5406 37.7146 42.3339C37.9545 42.3107 38.1976 42.3306 38.5002 42.3306L38.4986 42.3289Z" fill="#005BAC"/>
<path d="M2.71369 5.19153C2.71369 5.54545 2.71369 5.81007 2.71369 6.07634C2.71369 19.0757 2.71369 32.075 2.71369 45.0727C2.71369 47.7966 4.1972 49.2785 6.91945 49.2785C11.0475 49.2785 15.1739 49.2785 19.3019 49.2785C19.5285 49.2785 19.7534 49.2785 20.028 49.2785C19.7683 50.1385 19.545 50.9671 19.2523 51.7692C19.2043 51.9015 18.8504 51.9826 18.6371 51.9842C14.6546 51.9974 10.6721 51.9941 6.68791 51.9941C5.01586 51.9941 3.34546 51.9941 1.67341 51.9941C0.41482 51.9941 -0.000299264 51.5823 -0.00195312 50.3287C-0.000299264 39.2065 -0.000299264 28.0843 -0.000299264 16.9637C-0.000299264 13.6411 -0.000299264 10.3202 -0.000299264 6.99754C-0.000299264 5.54876 0.350319 5.19153 1.77429 5.19153C2.06041 5.19153 2.34488 5.19153 2.71369 5.19153Z" fill="#005BAC"/>
<path d="M34.5439 0.214966C37.0247 2.6941 39.4493 5.11701 41.8904 7.55811C41.7647 7.57134 41.5944 7.60276 41.4257 7.60442C39.6527 7.60772 37.8798 7.61103 36.1085 7.60442C34.9706 7.59945 34.5473 7.16945 34.5456 6.02663C34.5423 4.25369 34.5456 2.48241 34.5456 0.70947C34.5456 0.5507 34.5456 0.391929 34.5456 0.21662L34.5439 0.214966Z" fill="#005BAC"/>
</svg>
