<?xml version="1.0" encoding="UTF-8"?>
<svg id="Layer_1" data-name="Layer 1" xmlns="http://www.w3.org/2000/svg" viewBox="0 0 24 21">
  <defs>
    <style>
      .cls-1 {
        fill: #fff;
      }

      .cls-2 {
        fill: red;
      }
    </style>
  </defs>
  <g id="FavSelect">
    <path class="cls-2" d="m20.19,4.04c-.64-.71-1.51-1.22-2.46-1.44-.93-.21-1.9-.12-2.73.25-.82.37-1.55,1.02-2.11,1.87l-.81,1.26-.81-1.26c-.55-.86-1.28-1.51-2.11-1.87-.53-.24-1.12-.36-1.73-.36-.33,0-.67.04-1,.11-.94.21-1.81.72-2.46,1.44-.66.73-1.12,1.72-1.32,2.8-.19,1.09-.1,2.21.26,3.17.33.87.9,1.93,2.83,3.74,1.97,1.85,4.1,3.51,6.33,4.95,2.23-1.44,4.36-3.1,6.33-4.95,1.94-1.82,2.51-2.87,2.84-3.74.36-.96.45-2.09.26-3.17-.19-1.08-.66-2.08-1.32-2.8Z"/>
    <path class="cls-1" d="m23.42,6.5c-.26-1.45-.88-2.75-1.78-3.76C19.75.65,16.7-.03,14.21,1.08c-.79.35-1.51.88-2.13,1.54-.62-.67-1.34-1.19-2.13-1.54C7.46-.03,4.41.65,2.53,2.74c-.91,1.01-1.52,2.31-1.78,3.76-.26,1.44-.14,2.9.35,4.2.69,1.85,2.01,3.24,3.32,4.48,2.21,2.07,4.62,3.93,7.14,5.51l.51.32.51-.32c2.53-1.58,4.93-3.43,7.14-5.51,1.32-1.23,2.63-2.63,3.32-4.48h0c.49-1.3.61-2.75.35-4.2Zm-2.17,3.51c-.33.87-.9,1.93-2.84,3.74-1.97,1.85-4.1,3.51-6.33,4.95-2.23-1.44-4.36-3.1-6.33-4.95-1.94-1.82-2.51-2.87-2.83-3.74-.36-.96-.45-2.09-.26-3.17.19-1.08.66-2.07,1.32-2.8.64-.71,1.51-1.22,2.46-1.44.33-.08.67-.11,1-.11.6,0,1.19.12,1.73.36.82.37,1.55,1.02,2.11,1.87l.81,1.26.81-1.26c.55-.86,1.28-1.51,2.11-1.87.83-.37,1.8-.46,2.73-.25.94.21,1.81.72,2.46,1.44.66.73,1.12,1.72,1.32,2.8.19,1.09.1,2.21-.26,3.17Z"/>
  </g>
</svg>