<svg width="41" height="40" viewBox="0 0 41 40" fill="none" xmlns="http://www.w3.org/2000/svg">
<path d="M20.6706 39.06C10.1606 39.06 1.64062 30.54 1.64062 20.03C1.64062 9.52 10.1606 1 20.6706 1C31.1806 1 39.7006 9.52 39.7006 20.03C39.7006 30.54 31.1806 39.06 20.6706 39.06Z" stroke="#112A51" stroke-width="1.5" stroke-miterlimit="10"/>
<path d="M20.67 11.4801C23.46 11.4801 23.79 11.4901 24.89 11.5401C25.91 11.5901 26.46 11.7601 26.83 11.9001C27.32 12.0901 27.66 12.3201 28.03 12.6801C28.4 13.0501 28.62 13.3901 28.81 13.8801C28.95 14.2501 29.12 14.8001 29.17 15.8201C29.22 16.9201 29.23 17.2501 29.23 20.0401C29.23 22.8301 29.22 23.1601 29.17 24.2601C29.12 25.2801 28.95 25.8301 28.81 26.2001C28.62 26.6901 28.39 27.0301 28.03 27.4001C27.67 27.7601 27.32 27.9901 26.83 28.1801C26.46 28.3201 25.91 28.4901 24.89 28.5401C23.79 28.5901 23.46 28.6001 20.67 28.6001C17.88 28.6001 17.55 28.5901 16.45 28.5401C15.43 28.4901 14.88 28.3201 14.51 28.1801C14.02 27.9901 13.68 27.7601 13.31 27.4001C12.94 27.0301 12.72 26.6901 12.53 26.2001C12.39 25.8301 12.22 25.2801 12.17 24.2601C12.12 23.1601 12.11 22.8301 12.11 20.0401C12.11 17.2501 12.12 16.9201 12.17 15.8201C12.22 14.8001 12.39 14.2501 12.53 13.8801C12.72 13.3901 12.95 13.0501 13.31 12.6801C13.68 12.3101 14.02 12.0901 14.51 11.9001C14.88 11.7601 15.43 11.5901 16.45 11.5401C17.55 11.4901 17.88 11.4801 20.67 11.4801ZM20.67 9.6001C17.84 9.6001 17.48 9.6101 16.37 9.6601C15.26 9.7101 14.5 9.8901 13.84 10.1501C13.15 10.4201 12.57 10.7701 11.99 11.3501C11.41 11.9301 11.05 12.5101 10.79 13.2001C10.53 13.8601 10.36 14.6201 10.31 15.7301C10.26 16.8401 10.25 17.2001 10.25 20.0301C10.25 22.8601 10.26 23.2201 10.31 24.3301C10.36 25.4401 10.54 26.2001 10.79 26.8601C11.06 27.5501 11.41 28.1301 11.99 28.7101C12.57 29.2901 13.15 29.6501 13.84 29.9101C14.5 30.1701 15.26 30.3401 16.37 30.4001C17.48 30.4501 17.84 30.4601 20.67 30.4601C23.5 30.4601 23.86 30.4501 24.97 30.4001C26.08 30.3501 26.84 30.1701 27.5 29.9101C28.19 29.6401 28.77 29.2901 29.35 28.7101C29.93 28.1301 30.29 27.5501 30.55 26.8601C30.81 26.2001 30.98 25.4401 31.04 24.3301C31.09 23.2201 31.1 22.8601 31.1 20.0301C31.1 17.2001 31.09 16.8401 31.04 15.7301C30.99 14.6201 30.81 13.8601 30.55 13.2001C30.28 12.5101 29.93 11.9301 29.35 11.3501C28.77 10.7701 28.19 10.4101 27.5 10.1501C26.84 9.8901 26.08 9.7201 24.97 9.6601C23.86 9.6101 23.5 9.6001 20.67 9.6001Z" fill="#112A51"/>
<path d="M20.6686 14.6699C17.7086 14.6699 15.3086 17.0699 15.3086 20.0299C15.3086 22.9899 17.7086 25.3899 20.6686 25.3899C23.6286 25.3899 26.0286 22.9899 26.0286 20.0299C26.0286 17.0699 23.6286 14.6699 20.6686 14.6699ZM20.6686 23.5099C18.7486 23.5099 17.1886 21.9499 17.1886 20.0299C17.1886 18.1099 18.7486 16.5499 20.6686 16.5499C22.5886 16.5499 24.1486 18.1099 24.1486 20.0299C24.1486 21.9499 22.5886 23.5099 20.6686 23.5099Z" fill="#112A51"/>
<path d="M27.4902 14.46C27.4902 15.15 26.9302 15.71 26.2402 15.71C25.5502 15.71 24.9902 15.15 24.9902 14.46C24.9902 13.77 25.5502 13.21 26.2402 13.21C26.9302 13.21 27.4902 13.77 27.4902 14.46Z" fill="#112A51"/>
</svg>
