<svg width="11" height="11" viewBox="0 0 11 11" fill="none" xmlns="http://www.w3.org/2000/svg">
<path d="M5.44356 1.17662C6.82161 1.17662 6.9846 1.18156 7.52792 1.20626C8.03172 1.23096 8.30338 1.31492 8.48613 1.38407C8.72815 1.47792 8.89609 1.59152 9.07884 1.76933C9.26159 1.95208 9.37025 2.12002 9.4641 2.36204C9.53325 2.54479 9.61721 2.81645 9.64191 3.32025C9.66661 3.86357 9.67155 4.02656 9.67155 5.40461C9.67155 6.78266 9.66661 6.94565 9.64191 7.48897C9.61721 7.99277 9.53325 8.26443 9.4641 8.44718C9.37025 8.6892 9.25665 8.85714 9.07884 9.03989C8.90102 9.2177 8.72815 9.3313 8.48613 9.42515C8.30338 9.4943 8.03172 9.57827 7.52792 9.60296C6.9846 9.62766 6.82161 9.6326 5.44356 9.6326C4.06551 9.6326 3.90252 9.62766 3.3592 9.60296C2.8554 9.57827 2.58374 9.4943 2.40099 9.42515C2.15896 9.3313 1.99103 9.2177 1.80828 9.03989C1.62553 8.85714 1.51687 8.6892 1.42302 8.44718C1.35387 8.26443 1.2699 7.99277 1.24521 7.48897C1.22051 6.94565 1.21557 6.78266 1.21557 5.40461C1.21557 4.02656 1.22051 3.86357 1.24521 3.32025C1.2699 2.81645 1.35387 2.54479 1.42302 2.36204C1.51687 2.12002 1.63047 1.95208 1.80828 1.76933C1.99103 1.58658 2.15896 1.47792 2.40099 1.38407C2.58374 1.31492 2.8554 1.23096 3.3592 1.20626C3.90252 1.18156 4.06551 1.17662 5.44356 1.17662ZM5.44356 0.248047C4.04576 0.248047 3.86794 0.252986 3.31969 0.277682C2.77143 0.302378 2.39605 0.391285 2.07006 0.519705C1.72925 0.653064 1.44278 0.825938 1.1563 1.11241C0.869829 1.39889 0.692011 1.68536 0.56359 2.02617C0.43517 2.35216 0.351205 2.72754 0.326509 3.2758C0.301813 3.82406 0.296875 4.00187 0.296875 5.39967C0.296875 6.79748 0.301813 6.97529 0.326509 7.52354C0.351205 8.0718 0.44011 8.44718 0.56359 8.77317C0.69695 9.11398 0.869829 9.40045 1.1563 9.68693C1.44278 9.97341 1.72925 10.1512 2.07006 10.2796C2.39605 10.4081 2.77143 10.492 3.31969 10.5217C3.86794 10.5464 4.04576 10.5513 5.44356 10.5513C6.84136 10.5513 7.01918 10.5464 7.56743 10.5217C8.11569 10.497 8.49107 10.4081 8.81706 10.2796C9.15787 10.1463 9.44434 9.97341 9.73082 9.68693C10.0173 9.40045 10.1951 9.11398 10.3235 8.77317C10.4519 8.44718 10.5359 8.0718 10.5655 7.52354C10.5902 6.97529 10.5952 6.79748 10.5952 5.39967C10.5952 4.00187 10.5902 3.82406 10.5655 3.2758C10.5408 2.72754 10.4519 2.35216 10.3235 2.02617C10.1902 1.68536 10.0173 1.39889 9.73082 1.11241C9.44434 0.825938 9.15787 0.648125 8.81706 0.519705C8.49107 0.391285 8.11569 0.307317 7.56743 0.277682C7.01918 0.252986 6.84136 0.248047 5.44356 0.248047Z" fill="white"/>
<path d="M5.44333 2.75195C3.98132 2.75195 2.7959 3.93737 2.7959 5.39939C2.7959 6.8614 3.98132 8.04682 5.44333 8.04682C6.90534 8.04682 8.09076 6.8614 8.09076 5.39939C8.09076 3.93737 6.90534 2.75195 5.44333 2.75195ZM5.44333 7.11824C4.495 7.11824 3.72448 6.34772 3.72448 5.39939C3.72448 4.45105 4.495 3.68053 5.44333 3.68053C6.39166 3.68053 7.16218 4.45105 7.16218 5.39939C7.16218 6.34772 6.39166 7.11824 5.44333 7.11824Z" fill="white"/>
<path d="M8.81196 2.64865C8.81196 2.98946 8.53536 3.26606 8.19455 3.26606C7.85375 3.26606 7.57715 2.98946 7.57715 2.64865C7.57715 2.30785 7.85375 2.03125 8.19455 2.03125C8.53536 2.03125 8.81196 2.30785 8.81196 2.64865Z" fill="white"/>
</svg>
