<svg width="48" height="49" viewBox="0 0 48 49" fill="none" xmlns="http://www.w3.org/2000/svg">
<path d="M23.97 48.2901C37.2083 48.2901 47.94 37.5584 47.94 24.3201C47.94 11.0818 37.2083 0.350098 23.97 0.350098C10.7317 0.350098 0 11.0818 0 24.3201C0 37.5584 10.7317 48.2901 23.97 48.2901Z" fill="url(#paint0_linear_309_38633)"/>
<path fill-rule="evenodd" clip-rule="evenodd" d="M10.4692 37.8902C10.6192 37.3002 10.7492 36.7902 10.8892 36.2802C11.3392 34.6502 11.7892 33.0202 12.2192 31.3902C12.2792 31.1502 12.2592 30.8202 12.1392 30.6002C7.99922 22.7102 12.2692 13.1502 20.9592 11.1102C28.8492 9.26019 35.9492 14.5902 37.2392 21.7102C38.5892 29.1402 33.7292 36.2002 26.3492 37.4902C23.4192 38.0002 20.6192 37.5702 17.9392 36.2702C17.6992 36.1502 17.3692 36.1202 17.1092 36.1802C13.5492 37.0702 11.1692 37.7502 10.4492 37.8902H10.4692ZM13.6092 34.8002C14.9492 34.4502 16.1892 34.1402 17.4092 33.8002C17.7592 33.7102 18.0192 33.7602 18.3292 33.9302C20.6492 35.2702 23.1292 35.7602 25.7792 35.3402C31.8892 34.3602 36.0792 28.6402 35.1392 22.5602C34.1692 16.2502 28.2492 12.0202 21.9992 13.1602C14.4392 14.5502 10.4192 22.9802 14.1792 29.6602C14.5992 30.4002 14.7092 31.0102 14.4292 31.8002C14.0992 32.7502 13.8892 33.7402 13.5992 34.8102L13.6092 34.8002Z" fill="white"/>
<path fill-rule="evenodd" clip-rule="evenodd" d="M27.4897 30.6503C24.8597 30.5603 20.6697 28.4803 17.8097 23.5003C16.7897 21.7303 16.9397 19.7103 18.4297 18.3203C18.9297 17.8503 19.5697 17.9603 20.1597 18.0603C20.3097 18.0803 20.4597 18.3003 20.5297 18.4703C20.9097 19.3403 21.2897 20.2103 21.6197 21.1003C21.7997 21.5703 21.4697 22.0103 20.7897 22.8003C20.5697 23.0503 20.5297 23.2803 20.6997 23.5603C21.7997 25.4303 23.3397 26.7803 25.3697 27.5703C25.6697 27.6803 25.8897 27.6103 26.0797 27.3803C27.1497 26.0703 27.2597 25.6803 27.8297 25.9503C30.5497 27.2503 30.7597 27.3003 30.7697 27.6103C30.8597 29.9003 28.7597 30.7303 27.4897 30.6303V30.6503Z" fill="white"/>
<defs>
<linearGradient id="paint0_linear_309_38633" x1="23.97" y1="0.350098" x2="23.97" y2="48.2901" gradientUnits="userSpaceOnUse">
<stop stop-color="#00C13E"/>
<stop offset="1" stop-color="#008530"/>
</linearGradient>
</defs>
</svg>
