<svg width="7" height="12" viewBox="0 0 7 12" fill="none" xmlns="http://www.w3.org/2000/svg">
<path fill-rule="evenodd" clip-rule="evenodd" d="M6.9991 10.8334C6.9991 11.2018 6.66147 11.5002 6.24695 11.5002H1.54182C1.12563 11.5002 0.816406 11.2018 0.816406 10.8334V1.49879C0.816406 1.13041 1.12563 0.832031 1.54182 0.832031H6.24695C6.66314 0.832031 6.9991 1.13041 6.9991 1.49879V10.8334ZM3.90692 10.7072C4.13677 10.7072 4.32311 10.5214 4.32311 10.2922C4.32311 10.0629 4.13677 9.8771 3.90692 9.8771C3.67706 9.8771 3.49073 10.0629 3.49073 10.2922C3.49073 10.5214 3.67706 10.7072 3.90692 10.7072ZM1.4834 1.66602H6.3306V9.50043H1.4834V1.66602Z" fill="white"/>
</svg>
