<svg width="293" height="292" viewBox="0 0 293 292" fill="none" xmlns="http://www.w3.org/2000/svg">
<ellipse cx="146.476" cy="146" rx="146.103" ry="146" fill="#038FFC"/>
<path d="M108.888 135.336C105.72 135.336 102.808 134.6 100.152 133.128C97.5282 131.656 95.4322 129.608 93.8642 126.984C92.3282 124.328 91.5602 121.352 91.5602 118.056C91.5602 114.76 92.3282 111.8 93.8642 109.176C95.4322 106.552 97.5282 104.504 100.152 103.032C102.808 101.56 105.72 100.824 108.888 100.824C112.056 100.824 114.952 101.56 117.576 103.032C120.232 104.504 122.312 106.552 123.816 109.176C125.352 111.8 126.12 114.76 126.12 118.056C126.12 121.352 125.352 124.328 123.816 126.984C122.28 129.608 120.2 131.656 117.576 133.128C114.952 134.6 112.056 135.336 108.888 135.336ZM108.888 127.752C111.576 127.752 113.72 126.872 115.32 125.112C116.952 123.352 117.768 121 117.768 118.056C117.768 115.112 116.952 112.76 115.32 111C113.72 109.24 111.576 108.36 108.888 108.36C106.168 108.36 103.992 109.24 102.36 111C100.76 112.76 99.9602 115.112 99.9602 118.056C99.9602 121 100.76 123.352 102.36 125.112C103.992 126.872 106.168 127.752 108.888 127.752ZM138.751 101.304V121.416C138.751 123.432 139.247 124.984 140.239 126.072C141.231 127.16 142.687 127.704 144.607 127.704C146.527 127.704 147.999 127.16 149.023 126.072C150.047 124.984 150.559 123.432 150.559 121.416V101.304H158.767V121.416C158.767 124.424 158.127 126.968 156.847 129.048C155.567 131.128 153.839 132.696 151.663 133.752C149.519 134.808 147.119 135.336 144.463 135.336C141.807 135.336 139.423 134.824 137.311 133.8C135.231 132.744 133.583 131.176 132.367 129.096C131.151 126.984 130.543 124.424 130.543 121.416V101.304H138.751ZM181.714 135L174.706 122.28H172.738V135H164.53V101.304H178.306C180.962 101.304 183.218 101.768 185.074 102.696C186.962 103.624 188.37 104.904 189.298 106.536C190.226 108.136 190.69 109.928 190.69 111.912C190.69 114.152 190.05 116.152 188.77 117.912C187.522 119.672 185.666 120.92 183.202 121.656L190.978 135H181.714ZM172.738 116.472H177.826C179.33 116.472 180.45 116.104 181.186 115.368C181.954 114.632 182.338 113.592 182.338 112.248C182.338 110.936 181.954 109.912 181.186 109.176C180.45 108.408 179.33 108.024 177.826 108.024H172.738V116.472ZM72.777 157.304L81.129 182.744L89.481 157.304H98.217L86.265 191H75.993L64.041 157.304H72.777ZM109.856 157.304V191H101.648V157.304H109.856ZM127.996 191.336C125.532 191.336 123.324 190.936 121.372 190.136C119.42 189.336 117.852 188.152 116.668 186.584C115.516 185.016 114.908 183.128 114.844 180.92H123.58C123.708 182.2 124.14 183.176 124.876 183.848C125.612 184.52 126.572 184.856 127.756 184.856C128.972 184.856 129.932 184.568 130.636 183.992C131.34 183.384 131.692 182.584 131.692 181.592C131.692 180.76 131.404 180.072 130.828 179.528C130.284 178.984 129.596 178.536 128.764 178.184C127.964 177.832 126.812 177.432 125.308 176.984C123.132 176.312 121.356 175.64 119.98 174.968C118.604 174.296 117.42 173.304 116.428 171.992C115.436 170.68 114.94 168.968 114.94 166.856C114.94 163.72 116.076 161.272 118.348 159.512C120.62 157.72 123.58 156.824 127.228 156.824C130.94 156.824 133.932 157.72 136.204 159.512C138.476 161.272 139.692 163.736 139.852 166.904H130.972C130.908 165.752 130.508 164.872 129.772 164.264C129.068 163.624 128.124 163.304 126.94 163.304C125.948 163.304 125.148 163.576 124.54 164.12C123.932 164.664 123.628 165.448 123.628 166.472C123.628 167.56 124.14 168.408 125.164 169.016C126.188 169.624 127.788 170.28 129.964 170.984C132.14 171.72 133.9 172.424 135.244 173.096C136.62 173.768 137.804 174.744 138.796 176.024C139.788 177.304 140.284 178.952 140.284 180.968C140.284 182.888 139.788 184.632 138.796 186.2C137.836 187.768 136.428 189.016 134.572 189.944C132.716 190.872 130.524 191.336 127.996 191.336ZM153.543 157.304V191H145.335V157.304H153.543ZM175.427 191.336C172.259 191.336 169.347 190.6 166.691 189.128C164.067 187.656 161.971 185.608 160.403 182.984C158.867 180.328 158.099 177.352 158.099 174.056C158.099 170.76 158.867 167.8 160.403 165.176C161.971 162.552 164.067 160.504 166.691 159.032C169.347 157.56 172.259 156.824 175.427 156.824C178.595 156.824 181.491 157.56 184.115 159.032C186.771 160.504 188.851 162.552 190.355 165.176C191.891 167.8 192.659 170.76 192.659 174.056C192.659 177.352 191.891 180.328 190.355 182.984C188.819 185.608 186.739 187.656 184.115 189.128C181.491 190.6 178.595 191.336 175.427 191.336ZM175.427 183.752C178.115 183.752 180.259 182.872 181.859 181.112C183.491 179.352 184.307 177 184.307 174.056C184.307 171.112 183.491 168.76 181.859 167C180.259 165.24 178.115 164.36 175.427 164.36C172.707 164.36 170.531 165.24 168.899 167C167.299 168.76 166.499 171.112 166.499 174.056C166.499 177 167.299 179.352 168.899 181.112C170.531 182.872 172.707 183.752 175.427 183.752ZM227.37 191H219.162L205.434 170.216V191H197.226V157.304H205.434L219.162 178.184V157.304H227.37V191Z" fill="white"/>
</svg>
