<svg width="41" height="40" viewBox="0 0 41 40" fill="none" xmlns="http://www.w3.org/2000/svg">
<path d="M20.6394 39.06C10.1294 39.06 1.60938 30.54 1.60938 20.03C1.60938 9.52 10.1294 1 20.6394 1C31.1494 1 39.6694 9.52 39.6694 20.03C39.6694 30.54 31.1494 39.06 20.6394 39.06Z" stroke="#112A51" stroke-width="1.5" stroke-miterlimit="10"/>
<path fill-rule="evenodd" clip-rule="evenodd" d="M30.3444 10.8172C31.4035 11.1002 32.2362 11.941 32.5192 13.0082C33.0366 14.9405 33.0366 18.9749 33.0366 18.9749C33.0366 18.9749 33.0366 23.0092 32.5192 24.9415C32.2362 26.0087 31.4035 26.8495 30.3444 27.1325C28.4283 27.6499 20.7234 27.6499 20.7234 27.6499C20.7234 27.6499 13.0266 27.6499 11.1024 27.1325C10.0433 26.8495 9.21056 26.0087 8.92759 24.9415C8.41016 23.0092 8.41016 18.9749 8.41016 18.9749C8.41016 18.9749 8.41016 14.9405 8.92759 13.0082C9.21056 11.941 10.0433 11.1002 11.1024 10.8172C13.0185 10.2998 20.7234 10.2998 20.7234 10.2998C20.7234 10.2998 28.4202 10.2998 30.3444 10.8172ZM18.2012 15.3125V22.6374L24.6367 18.9749L18.2012 15.3125Z" fill="#112A51"/>
</svg>
