<svg width="13" height="10" viewBox="0 0 13 10" fill="none" xmlns="http://www.w3.org/2000/svg">
<path fill-rule="evenodd" clip-rule="evenodd" d="M11.0233 0.849322C11.5464 0.989087 11.9577 1.40439 12.0975 1.93151C12.353 2.88591 12.353 4.87857 12.353 4.87857C12.353 4.87857 12.353 6.87122 12.0975 7.82562C11.9577 8.35274 11.5464 8.76805 11.0233 8.90781C10.0769 9.16338 6.27125 9.16338 6.27125 9.16338C6.27125 9.16338 2.46963 9.16338 1.51922 8.90781C0.9961 8.76805 0.584789 8.35274 0.445024 7.82562C0.189453 6.87122 0.189453 4.87857 0.189453 4.87857C0.189453 4.87857 0.189453 2.88591 0.445024 1.93151C0.584789 1.40439 0.9961 0.989087 1.51922 0.849322C2.46563 0.59375 6.27125 0.59375 6.27125 0.59375C6.27125 0.59375 10.0729 0.59375 11.0233 0.849322ZM5.02539 3.07031V6.68824L8.20407 4.87928L5.02539 3.07031Z" fill="white"/>
</svg>
